<?xml version="1.0" encoding="utf-8"?>
<!-- Generator: Adobe Illustrator 28.1.0, SVG Export Plug-In . SVG Version: 6.00 Build 0)  -->
<svg version="1.1" id="Layer_1" xmlns="http://www.w3.org/2000/svg" xmlns:xlink="http://www.w3.org/1999/xlink" x="0px" y="0px"
	 viewBox="0 0 333 296" style="enable-background:new 0 0 333 296;" xml:space="preserve">
<style type="text/css">
	.st0{fill:#FFFFFF;stroke:#000000;stroke-miterlimit:10;}
	.st1{fill:#FFFFFF;stroke:#000000;stroke-width:0.8912;stroke-miterlimit:10;}
	.st2{fill:#FFFFFF;stroke:#000000;stroke-width:0.6373;stroke-miterlimit:10;}
	.st3{fill:#FFFFFF;stroke:#000000;stroke-width:0.3074;stroke-miterlimit:10;}
	.st4{fill:#FFFFFF;stroke:#000000;stroke-width:0.2088;stroke-miterlimit:10;}
	.st5{fill:#FFFFFF;stroke:#000000;stroke-width:1.0933;stroke-miterlimit:10;}
	.st6{fill:#FFFFFF;stroke:#000000;stroke-width:0.8155;stroke-miterlimit:10;}
	.st7{fill:#00AA8A;stroke:#000000;stroke-width:2.5801;stroke-miterlimit:10;}
	.st8{fill:#00AA8A;stroke:#000000;stroke-miterlimit:10;}
	.st9{fill:#941D00;stroke:#000000;stroke-width:2.5801;stroke-miterlimit:10;}
	.st10{fill:#BFBC00;stroke:#000000;stroke-width:2.1125;stroke-miterlimit:10;}
	.st11{fill:none;stroke:#81FF00;stroke-miterlimit:10;}
	.st12{fill:#1C7F00;stroke:#000000;stroke-width:0.1352;stroke-miterlimit:10;}
	.st13{fill:#00D000;}
	
		.st14{clip-path:url(#SVGID_00000008147128397772202810000002006529233997265798_);fill:#FFFFFF;stroke:#000000;stroke-width:4;stroke-miterlimit:10;}
	.st15{fill:#FFFFFF;}
	.st16{fill:#FFFFFF;stroke:#000000;stroke-width:0.25;stroke-miterlimit:10;}
	.st17{fill:#FFFC2A;stroke:#000000;stroke-width:0.25;stroke-miterlimit:10;}
	.st18{fill:#FFFFFF;stroke:#000000;stroke-width:0.294;stroke-miterlimit:10;}
	.st19{fill:#00D4D1;stroke:#000000;stroke-width:0.25;stroke-miterlimit:10;}
	.st20{fill:#949200;stroke:#A7BF00;stroke-width:4;stroke-miterlimit:10;}
	.st21{fill:#0090E9;stroke:#000000;stroke-width:1.0933;stroke-miterlimit:10;}
	.st22{fill:#00AA8A;stroke:#000000;stroke-width:0.3125;stroke-miterlimit:10;}
	.st23{fill:#941D00;stroke:#000000;stroke-width:0.3125;stroke-miterlimit:10;}
	.st24{fill:#BFBC00;stroke:#000000;stroke-width:0.2559;stroke-miterlimit:10;}
	.st25{fill:none;stroke:#3CFF15;stroke-width:0.1666;stroke-miterlimit:10;}
	.st26{fill:none;stroke:#81FF00;stroke-width:0.1837;stroke-miterlimit:10;}
	.st27{fill:#FFFFFF;stroke:#000000;stroke-miterlimit:10;stroke-dasharray:12;}
	.st28{fill:#FFFFFF;stroke:#000000;stroke-width:0.75;stroke-miterlimit:10;stroke-dasharray:4.4014;}
	
		.st29{clip-path:url(#SVGID_00000018937618429766106730000005829412769450187938_);fill:#FFFFFF;stroke:#000000;stroke-width:4;stroke-miterlimit:10;}
	
		.st30{clip-path:url(#SVGID_00000106849599704514890720000016113079514810416512_);fill:#FFFFFF;stroke:#000000;stroke-width:4;stroke-miterlimit:10;}
</style>
<path d="M2297.5-90.56c-0.5,9.11-44.21,15.46-52.74,16.42c-6.23,1.04-12.51,0.77-18.76,0.87v-10.59c6.11,0.08,12.2-0.43,18.33,0.05
	c6.12,0.24,12.26,0.32,18.39,0.22C2268.72-83.77,2296.24-84.1,2297.5-90.56L2297.5-90.56z"/>
<circle class="st0" cx="2361.5" cy="-102.5" r="11"/>
<ellipse transform="matrix(0.994 -0.1096 0.1096 0.994 13.5054 238.7594)" class="st0" cx="2178.22" cy="-3.45" rx="3" ry="29.5"/>
<ellipse transform="matrix(0.994 -0.1096 0.1096 0.994 19.8281 237.674)" class="st0" cx="2171.51" cy="-61.5" rx="3" ry="29.5"/>
<ellipse transform="matrix(0.994 -0.1096 0.1096 0.994 15.886 234.6223)" class="st0" cx="2141.78" cy="-27.17" rx="29.5" ry="3"/>
<g>
	<circle class="st0" cx="2133.5" cy="375.5" r="19"/>
	
		<ellipse transform="matrix(0.049 -0.9988 0.9988 0.049 1651.787 2489.9309)" class="st1" cx="2133.41" cy="377.58" rx="16.97" ry="16.89"/>
	<circle class="st0" cx="2185.31" cy="375.44" r="19"/>
	
		<ellipse transform="matrix(0.049 -0.9988 0.9988 0.049 1701.1134 2541.6248)" class="st1" cx="2185.22" cy="377.52" rx="16.97" ry="16.89"/>
</g>
<ellipse class="st2" cx="2060" cy="375.63" rx="12.31" ry="11.91"/>
<path class="st3" d="M1962,521.85c0-2.13-5.33-3.96-12.93-4.73c5.59-2.46,9.06-5.09,8.6-6.88c-0.61-2.36-7.89-2.48-17.09-0.51
	c7.46-7.19,11.99-14.12,10.32-16.06c-1.67-1.95-9.01,1.8-16.96,8.5c4.02-9.06,5.55-16.69,3.38-17.83
	c-2.47-1.29-8.77,6.28-14.07,16.92c-0.04,0.09-0.08,0.17-0.13,0.26c0.01-0.48,0.01-0.96,0.01-1.45c0-11.95-2.24-21.63-5.01-21.63
	c-2.18,0-4.03,6-4.72,14.39c-2.89-8.99-6.56-15.24-8.84-14.62c-2.6,0.71-2.42,10.17,0.36,21.34c-6.95-7.53-13.61-12.09-15.49-10.39
	c-2.06,1.85,2.36,10.46,9.88,19.32c-10.26-5.33-19.52-7.63-20.77-5.12c-1.25,2.51,6.03,8.9,16.3,14.32
	c-11.42,0.06-20.6,2.34-20.6,5.13c0,1.59,2.96,3.01,7.61,3.95c-4.6,2.23-7.34,4.5-6.93,6.1c0.71,2.74,10.42,2.47,21.68-0.61
	c2.2-0.6,4.29-1.26,6.23-1.96c-1.23,0.99-2.48,2.05-3.73,3.18c-8.76,7.89-14.38,16-12.55,18.14c1.55,1.8,7.94-1.27,15.18-7.04
	c-4.05,9.11-5.6,16.78-3.42,17.93c2.47,1.29,8.77-6.28,14.07-16.92c0.25-0.5,0.49-1,0.73-1.49c0,0.16,0,0.33,0,0.5
	c0,11.95,2.24,21.63,5.01,21.63c1.61,0,3.05-3.3,3.97-8.41c2.17,4.71,4.39,7.51,5.95,7.09c2.67-0.73,2.41-10.68-0.59-22.23
	c-0.43-1.67-0.9-3.28-1.39-4.82c1.28,1.76,2.71,3.58,4.28,5.41c7.69,8.98,15.61,14.74,17.69,12.87c1.75-1.57-1.18-8.03-6.72-15.37
	c8.12,3.57,14.74,4.82,15.78,2.73c1.26-2.52-6.13-8.98-16.5-14.43c-1.53-0.8-3.04-1.54-4.51-2.2c1.55,0.09,3.16,0.13,4.82,0.13
	C1952.55,526.98,1962,524.68,1962,521.85z M1920.08,522.68c0.08,0.12,0.18,0.24,0.29,0.36c1.04-0.43,2.83-0.37,5.14,0.12
	c-1.96,0.15-3.68,0.14-5.05-0.03c0.07,0.06,0.14,0.13,0.22,0.19c1.14-0.34,3.17,0.5,5.67,2.24c-2.62-0.61-4.6-1.38-5.67-2.24
	c-0.19,0.06-0.36,0.15-0.51,0.28c-0.17,0.15-0.29,0.35-0.37,0.58c0.22,0.33,0.42,0.71,0.62,1.16c0.73,1.01,1.5,2.33,2.26,3.9
	c-0.51-0.48-0.97-0.94-1.38-1.39c-0.73-0.81-1.28-1.56-1.6-2.23c-0.28-0.58-0.39-1.09-0.31-1.52c-0.32-0.33-0.63-0.59-0.94-0.77
	c0.22,0.49,0.19,1.18-0.06,2.03c-0.43,1.42-1.48,3.29-3.05,5.42c-0.09-1.9-0.02-3.53,0.19-4.8c0.14-0.85,0.35-1.53,0.63-2.03
	c-0.18,0.07-0.37,0.15-0.57,0.26c-0.27,0.23-0.6,0.45-1,0.66c-0.62,0.34-1.37,0.65-2.26,0.94c1.01-0.65,1.82-1.29,2.39-1.9
	c-0.65,0.15-1.49,0.16-2.5,0.06c1.28-0.64,2.42-1.08,3.36-1.3c0.1-0.25,0.15-0.49,0.14-0.72c-1.11-0.17-2.62-0.91-4.38-2.1
	c-0.31-0.21-0.63-0.44-0.96-0.68c1.22,0.31,2.29,0.64,3.18,1.01c0.93,0.24,1.58,0.59,1.92,1.06l0,0c0.31,0.24,0.54,0.49,0.7,0.74
	h0.01c-0.12-0.57-0.46-1.23-1-1.96c-1.17,0.11-2.66-1.44-4.22-4.15c1.87,1.51,3.32,2.93,4.22,4.15c0.07,0,0.14-0.02,0.21-0.03
	c0.21-0.06,0.4-0.17,0.57-0.34c-0.93-1.88-1.7-4.95-2.22-8.76c1.47,2.32,2.59,4.43,3.26,6.17c0.1,0.25,0.19,0.49,0.26,0.73
	c0.18,0.55,0.32,1.05,0.39,1.5c0.59-0.65,1.45-1.35,2.56-2.07c0.42-0.72,0.92-1.5,1.51-2.32c-0.13,0.58-0.26,1.13-0.41,1.65
	c1.78-1.03,4.01-2.08,6.56-3.07c-1.28,2.01-2.54,3.77-3.73,5.21c1.98-0.63,4.54-1.14,7.49-1.48
	C1926.54,520.96,1922.14,523.07,1920.08,522.68z"/>
<g>
	<path class="st4" d="M2214.5,137.82c7.97,3.07,13.27,6.45,12.57,8.27c-0.66,1.7-6.38,1.56-13.97-0.1c5.19,4.16,8.11,7.79,7.03,9.16
		c-1,1.27-5.21,0.29-10.7-2.24c-0.02-0.01-0.05-0.02-0.07-0.03c3.36,5.23,4.8,9.33,3.33,10.32c-0.28,0.19-0.64,0.25-1.09,0.21
		c-2.35-0.24-6.86-3.55-11.7-8.55c2.25,7.62,2.56,13.56,0.5,14.19c-0.32,0.1-0.69,0.06-1.08-0.1c-0.03-0.01-0.06-0.02-0.09-0.04
		c-2.53-1.05-6.41-6.96-9.62-14.76c0,10.69-2.17,19.35-4.85,19.35c-2.22,0-4.08-5.92-4.67-14.01c-2.48,6.26-5.31,10.35-7.21,9.94
		c-1.96-0.42-2.36-5.55-1.24-12.47c0.02-0.1,0.03-0.21,0.05-0.31c0-0.02,0.01-0.05,0.01-0.07c-5.45,5.97-10.53,9.64-12.39,8.71
		c-1.73-1.33,0.86-7.54,5.96-14.76c-0.12,0.07-0.24,0.13-0.36,0.2c-0.02,0.01-0.04,0.03-0.07,0.04c-6.68,3.67-12.11,5.38-13.32,3.94
		c-1.27-1.52,2.48-6.06,8.83-11.07c-8.2,1.87-14.51,2.09-15.19,0.29c-0.55-1.44,2.67-3.84,7.98-6.28
		c-6.92-0.72-11.65-2.18-11.65-3.86c0-1.96,6.48-3.62,15.37-4.16c-7.47-3.04-12.35-6.28-11.65-8.03c0.68-1.7,6.45-1.51,14.07,0.23
		c-6.9-5.02-11.1-9.71-9.84-11.31c1.43-1.82,9.4,0.97,18.32,6.29c-6.66-8.18-10.35-15.72-8.29-17.11c1.74-1.17,7.07,2.43,12.86,8.42
		c0,0.01,0,0.02,0.01,0.03c0.01,0.01,0.01,0.02,0.02,0.02c0-0.01-0.01-0.02-0.01-0.03c-2.22-7.58-2.52-13.46-0.47-14.09
		c1.92-0.58,5.37,3.63,8.59,10.12c0-0.01,0-0.02,0-0.03c0.83-5.99,2.43-10.05,4.26-10.05c2.12,0,3.93,5.45,4.59,13.04
		c2.07-6.72,4.7-11.25,6.68-10.94c2,0.31,2.76,5.5,2.1,12.59c0,0.01,0,0.02,0,0.02c5.41-5.84,10.37-9.34,12.11-8.24
		c1.68,1.06-0.16,6.12-4.2,12.35c0.01-0.01,0.02-0.01,0.04-0.02c7.28-4.18,13.35-6.22,14.64-4.68c1.27,1.52-2.48,6.06-8.83,11.07
		c8.2-1.87,14.51-2.09,15.19-0.29c0.86,2.27-7.6,6.91-18.91,10.35c-0.14,0.04-0.27,0.08-0.41,0.12c11.31,0.14,20.26,2.03,20.26,4.34
		C2228,135.62,2222.42,137.18,2214.5,137.82z"/>
	<g>
		<ellipse class="st5" cx="2185.96" cy="131.92" rx="21.62" ry="19.96"/>
		<ellipse class="st6" cx="2188.77" cy="130.66" rx="16.08" ry="14.93"/>
	</g>
</g>
<path class="st7" d="M2506.07-70.47c0,6.33-23.01,11.46-51.39,11.46s-51.39-5.13-51.39-11.46s23.01-11.46,51.39-11.46
	S2506.07-76.8,2506.07-70.47z"/>
<ellipse transform="matrix(0.9991 -0.043 0.043 0.9991 7.6556 107.5452)" class="st7" cx="2506.11" cy="-124.35" rx="11.46" ry="51.39"/>
<path class="st7" d="M2611.5-70.35c0,6.33-23.01,11.46-51.39,11.46s-51.39-5.13-51.39-11.46c0-6.33,23.01-11.46,51.39-11.46
	S2611.5-76.68,2611.5-70.35z"/>
<ellipse transform="matrix(0.8469 -0.5318 0.5318 0.8469 444.6925 1315.7219)" class="st8" cx="2507.11" cy="-114.35" rx="51.39" ry="11.46"/>
<ellipse transform="matrix(0.1919 -0.9814 0.9814 0.1919 2103.073 2383.2126)" class="st9" cx="2498.64" cy="-85.4" rx="51.39" ry="11.46"/>
<ellipse transform="matrix(0.7244 -0.6894 0.6894 0.7244 756.9766 1673.8572)" class="st9" cx="2471.96" cy="-109.81" rx="11.46" ry="51.39"/>
<ellipse transform="matrix(0.7533 -0.6576 0.6576 0.7533 697.329 1649.9175)" class="st9" cx="2548.15" cy="-104.64" rx="51.39" ry="11.46"/>
<ellipse transform="matrix(0.7244 -0.6894 0.6894 0.7244 722.7828 1745.5959)" class="st9" cx="2544.58" cy="-31.18" rx="11.46" ry="51.39"/>
<ellipse class="st10" cx="2508" cy="-70.5" rx="24" ry="22.5"/>
<path class="st11" d="M1080-76c-16.57-53.57,13.43-110.43,67-127c42.86-13.25,88.35,10.74,101.6,53.6
	c10.6,34.29-8.59,70.68-42.88,81.28c-27.43,8.48-56.54-6.88-65.02-34.3c-6.79-21.94,5.5-45.23,27.44-52.02
	c17.55-5.43,36.19,4.4,41.62,21.95c4.34,14.04-3.52,28.95-17.56,33.29c-11.23,3.47-23.16-2.82-26.63-14.05
	c-2.78-8.99,2.25-18.53,11.24-21.31c7.19-2.22,14.82,1.8,17.05,8.99"/>
<ellipse transform="matrix(0.676 -0.7369 0.7369 0.676 905.0957 1817.6727)" class="st7" cx="2519.67" cy="-120.47" rx="51.39" ry="11.46"/>
<path class="st12" d="M2302.13,113.42c-0.33,0.33-6.88,0.2-14.62-0.3c-6.84-0.44-12.32-1.01-13.28-1.36
	c-2.86,0.54-5.32,1.15-7.23,1.83c-1.27,0.46-2.67,0.9-4.04,1.35c-1.15,0.36-2.12,0.7-3.37,1.06h-0.7c-2.64-0.86-2.63-2.01-1.07-2.99
	c-2-0.28-5.26-1.28-8.24-2.58c-3.83-1.67-5.73-3.19-4.25-3.41c1.48-0.21,5.78,0.96,9.6,2.63c2.29,1,3.9,1.95,4.49,2.59
	c0.07-0.02,0.13-0.05,0.2-0.07c8.73-3.02,25.33-4.22,39.37-3.32v0.17c-8.03,0.55-16.25,1.26-23.06,2.42
	c2.53-0.04,7.36,0.13,12.77,0.47C2296.46,112.42,2302.46,113.09,2302.13,113.42z"/>
<path class="st7" d="M2734.5,199.65c0,6.33-23.01,11.46-51.39,11.46s-51.39-5.13-51.39-11.46s23.01-11.46,51.39-11.46
	S2734.5,193.32,2734.5,199.65z"/>
<ellipse transform="matrix(0.9991 -0.043 0.043 0.9991 -8.2957 113.2604)" class="st7" cx="2631.11" cy="249.65" rx="11.46" ry="51.39"/>
<ellipse transform="matrix(0.7533 -0.6576 0.6576 0.7533 484.9596 1762.1949)" class="st9" cx="2591.64" cy="234.6" rx="51.39" ry="11.46"/>
<ellipse transform="matrix(0.7533 -0.6576 0.6576 0.7533 550.1088 1797.4021)" class="st9" cx="2671.15" cy="165.36" rx="51.39" ry="11.46"/>
<ellipse transform="matrix(0.7244 -0.6894 0.6894 0.7244 570.5489 1904.8021)" class="st9" cx="2667.58" cy="238.82" rx="11.46" ry="51.39"/>
<ellipse class="st10" cx="2631" cy="199.5" rx="24" ry="22.5"/>
<path class="st12" d="M2165.87,113.42c0.33,0.33,6.88,0.2,14.62-0.3c6.84-0.44,12.32-1.01,13.28-1.36c2.86,0.54,5.32,1.15,7.23,1.83
	c1.27,0.46,2.67,0.9,4.04,1.35c1.15,0.36,2.12,0.7,3.37,1.06h0.7c2.64-0.86,2.63-2.01,1.07-2.99c2-0.28,5.26-1.28,8.24-2.58
	c3.83-1.67,5.73-3.19,4.25-3.41c-1.48-0.21-5.78,0.96-9.6,2.63c-2.29,1-3.9,1.95-4.49,2.59c-0.07-0.02-0.13-0.05-0.2-0.07
	c-8.73-3.02-25.33-4.22-39.37-3.32v0.17c8.03,0.55,16.25,1.26,23.06,2.42c-2.53-0.04-7.36,0.13-12.77,0.47
	C2171.54,112.42,2165.54,113.09,2165.87,113.42z"/>
<ellipse class="st9" cx="2394.5" cy="92" rx="40" ry="11.5"/>
<ellipse class="st9" cx="2406" cy="157" rx="7.5" ry="1.5"/>
<path class="st13" d="M2456.93,237.88l0.01,0.07c-10.05,2.3-20.35,4.34-30.56,5.93c1.44,0.01,3.35,0.14,5.31,0.38
	c3.63,0.44,6.07,1.08,5.43,1.43c-0.63,0.35-4.09,0.28-7.72-0.16c-3.14-0.38-5.39-0.91-5.53-1.27c-14.81,2.19-30.01,3.62-39,2.01
	c-2.65-0.48-4.54-1.34-5.27-2.49l21.53-4.23c-0.04,0.08-0.09,0.19-0.16,0.28l-0.01,0.09l-0.05,0.18c0.02,0.08,0.03,0.17,0.04,0.26
	c0.04,0.05,0.11,0.2,0.14,0.25c0.07,0.06,0.2,0.19,0.26,0.24c0.07,0.04,0.3,0.18,0.38,0.23l0.33,0.14c0.64,0.28,1.62,0.48,2.62,0.65
	c2.88,0.4,6.51,0.51,10.53,0.43c0.03-0.33,3.25-1.59,7.5-2.91c4.49-1.4,8.42-2.34,8.77-2.1c0.36,0.24-2.99,1.56-7.48,2.95
	c-3.18,0.99-6.08,1.75-7.63,2.02c3.57-0.1,7.4-0.35,11.23-0.67c6.15-0.51,12.63-1.27,19.2-2.19
	C2450.15,238.95,2453.52,238.44,2456.93,237.88z"/>
<g>
	<g>
		<g>
			<defs>
				<path id="SVGID_1_" d="M1232.55-248.01h-48h-48c-0.5-11.29-6.63-21.51-16.25-28.91s-22.75-11.97-37.25-11.97c0,0,0-8.16,0-19.6
					c0-3.81,0-7.98,0-12.34c0.25-0.84,0.6-2.28,1.06-4.31c10.94-34.87,10.94-70.87,3.76-107.01c-0.26-2.24-0.52-4.49-0.83-7.28
					c-1.2-8.66-2.56-17.32-3.99-25.96c0-2.06-0.01-4.94-0.01-4.94c0-15.38,8-29.29,21.19-39.37s31.56-16.31,52.31-16.31h29h29
					c18.74,0,36.12,6.23,48.81,16.31c12.69,10.08,20.69,24,20.69,39.37c0,0,0,1.56,0,4.28c0,0.68-0.06,1.91-0.21,4.06
					c-1.11,6.85-2.11,13.71-2.97,20.56c-0.43,3.43-0.87,7.96-1.27,12.41c-7.55,34.01-5.55,68.01,2.28,100.58
					c0.22,1.99,0.38,3.29,0.56,4.96c0.31,1.7,0.62,3.4,0.96,5.1c0.36,1.96,0.63,3.56,0.65,3.92c0,14.45,0,25.56,0,25.56
					c-14.5,0-27.62,4.58-37,11.97S1232.05-259.3,1232.55-248.01z"/>
			</defs>
			<use xlink:href="#SVGID_1_"  style="overflow:visible;fill:#E9008A;"/>
			<clipPath id="SVGID_00000057130264436082713210000016728857624243115392_">
				<use xlink:href="#SVGID_1_"  style="overflow:visible;"/>
			</clipPath>
			
				<path style="clip-path:url(#SVGID_00000057130264436082713210000016728857624243115392_);fill:#FFFFFF;stroke:#000000;stroke-width:4;stroke-miterlimit:10;" d="
				M2334.95-413.01c0,6.33-23.01,11.46-51.39,11.46s-51.39-5.13-51.39-11.46c0-6.33,23.01-11.46,51.39-11.46
				S2334.95-419.34,2334.95-413.01z"/>
		</g>
		<g>
			<path class="st15" d="M1136.44-246.4v-16.74c0-4.13,3.36-7.49,7.49-7.49h0.83c3.99,0,7.24,3.25,7.24,7.24v16.99H1136.44z"/>
			<path d="M1144.76-270.24c3.78,0,6.85,3.07,6.85,6.85v16.6h-14.79v-16.35c0-3.92,3.19-7.1,7.1-7.1H1144.76 M1144.76-271.01h-0.83
				c-4.35,0-7.87,3.53-7.87,7.87v17.13h16.33v-17.37C1152.39-267.6,1148.97-271.01,1144.76-271.01L1144.76-271.01z"/>
		</g>
		<g>
			<path class="st15" d="M1152.77-246.4v-16.74c0-4.13,3.36-7.49,7.49-7.49h0.83c3.99,0,7.24,3.25,7.24,7.24v16.99H1152.77z"/>
			<path d="M1161.09-270.24c3.78,0,6.85,3.07,6.85,6.85v16.6h-14.79v-16.35c0-3.92,3.19-7.1,7.1-7.1H1161.09 M1161.09-271.01h-0.83
				c-4.35,0-7.87,3.53-7.87,7.87v17.13h16.33v-17.37C1168.72-267.6,1165.31-271.01,1161.09-271.01L1161.09-271.01z"/>
		</g>
		<g>
			<path class="st15" d="M1169.11-246.4v-16.74c0-4.13,3.36-7.49,7.49-7.49h0.83c3.99,0,7.24,3.25,7.24,7.24v16.99H1169.11z"/>
			<path d="M1177.43-270.24c3.78,0,6.85,3.07,6.85,6.85v16.6h-14.79v-16.35c0-3.92,3.19-7.1,7.1-7.1H1177.43 M1177.43-271.01h-0.83
				c-4.35,0-7.87,3.53-7.87,7.87v17.13h16.33v-17.37C1185.05-267.6,1181.64-271.01,1177.43-271.01L1177.43-271.01z"/>
		</g>
		<g>
			<path class="st15" d="M1185.44-246.4v-16.74c0-4.13,3.36-7.49,7.49-7.49h0.83c3.99,0,7.24,3.25,7.24,7.24v16.99H1185.44z"/>
			<path d="M1193.76-270.24c3.78,0,6.85,3.07,6.85,6.85v16.6h-14.79v-16.35c0-3.92,3.19-7.1,7.1-7.1H1193.76 M1193.76-271.01h-0.83
				c-4.35,0-7.87,3.53-7.87,7.87v17.13h16.33v-17.37C1201.39-267.6,1197.97-271.01,1193.76-271.01L1193.76-271.01z"/>
		</g>
		<g>
			<path class="st15" d="M1201.77-246.4v-16.74c0-4.13,3.36-7.49,7.49-7.49h0.83c3.99,0,7.24,3.25,7.24,7.24v16.99H1201.77z"/>
			<path d="M1210.09-270.24c3.78,0,6.85,3.07,6.85,6.85v16.6h-14.79v-16.35c0-3.92,3.19-7.1,7.1-7.1H1210.09 M1210.09-271.01h-0.83
				c-4.35,0-7.87,3.53-7.87,7.87v17.13h16.33v-17.37C1217.72-267.6,1214.31-271.01,1210.09-271.01L1210.09-271.01z"/>
		</g>
		<g>
			<path class="st15" d="M1218.11-246.4v-16.74c0-4.13,3.36-7.49,7.49-7.49h0.83c3.99,0,7.24,3.25,7.24,7.24v16.99H1218.11z"/>
			<path d="M1226.43-270.24c3.78,0,6.85,3.07,6.85,6.85v16.6h-14.79v-16.35c0-3.92,3.19-7.1,7.1-7.1H1226.43 M1226.43-271.01h-0.83
				c-4.35,0-7.87,3.53-7.87,7.87v17.13h16.33v-17.37C1234.05-267.6,1230.64-271.01,1226.43-271.01L1226.43-271.01z"/>
		</g>
		<path d="M1093.58-318.66c2.42,6.85,10.17,8.9,16.13,8.03c0.23-0.03,0.46-0.09,0.68-0.15c15.14-4.41,29.5-5.65,44.48-5.5
			c2.85,0.03,5.18-2.26,5.18-5.11v-0.28c0-2.8-2.25-5.08-5.06-5.12c-1.36-0.02-2.72-0.03-4.08-0.03
			c-16.75-0.86-30.67,10.97-47.51,13.09c-0.24,0.03-0.48,0.04-0.71,0.04C1098.82-313.68,1095.01-313.83,1093.58-318.66
			L1093.58-318.66z"/>
		<path d="M1273.52-318.62c-2.42,6.85-10.17,8.9-16.13,8.03c-0.23-0.03-0.46-0.09-0.68-0.15c-15.14-4.41-29.5-5.65-44.48-5.5
			c-2.85,0.03-5.18-2.26-5.18-5.11v-0.28c0-2.8,2.25-5.08,5.06-5.12c1.36-0.02,2.72-0.03,4.08-0.03
			c16.75-0.86,30.67,10.97,47.51,13.09c0.24,0.03,0.48,0.04,0.71,0.04C1268.29-313.65,1272.1-313.79,1273.52-318.62L1273.52-318.62z
			"/>
		<path d="M1188.17-376.98c12.26,7.54,4.65,20.98,12.22,32.76c2.85,4.43-11.1,6.15-11.71,1.42c-0.01-0.06-0.05-0.14-0.02-0.19
			c3.49-6.88,0.99-27.93-2.65-34.81L1188.17-376.98z"/>
		<path d="M1180.61-376.99c-11.78,8.63-3.39,21.35-10.24,33.79c-2.57,4.68,11.43,5.12,11.75,0.36c0-0.06,0.04-0.14,0.01-0.19
			c-3.89-6.55-2.64-27.77,0.58-34.97L1180.61-376.99z"/>
		<circle class="st15" cx="1145.05" cy="-353.01" r="7"/>
		<circle class="st16" cx="1132.05" cy="-337.01" r="5"/>
		<circle class="st16" cx="1116.05" cy="-332.01" r="3"/>
		<circle class="st16" cx="1106.55" cy="-334.51" r="2.5"/>
		<circle class="st16" cx="1221.05" cy="-352.01" r="7"/>
		<circle class="st16" cx="1239.05" cy="-336.01" r="5"/>
		<circle class="st16" cx="1257.05" cy="-333.01" r="3"/>
		<circle class="st16" cx="1268.55" cy="-332.51" r="2.5"/>
		<polygon class="st17" points="1166.35,-448.35 1176.02,-449.63 1166.91,-453.13 1176.6,-451.97 1168.65,-457.62 1177.74,-454.09 
			1171.44,-461.54 1179.37,-455.86 1175.13,-464.64 1181.39,-457.16 1179.47,-466.72 1183.68,-457.93 1184.19,-467.67 
			1186.08,-458.1 1188.99,-467.4 1188.44,-457.67 1193.58,-465.95 1190.63,-456.66 1197.67,-463.41 1192.5,-455.14 1200.99,-459.93 
			1193.93,-453.21 1203.35,-455.73 1194.83,-450.98 1204.58,-451.08 1195.15,-448.59 1204.62,-446.26 1194.87,-446.2 
			1203.47,-441.59 1194.01,-443.96 1201.18,-437.35 1192.61,-442 1197.92,-433.82 1190.77,-440.45 1193.87,-431.2 1188.6,-439.4 
			1189.31,-429.68 1186.24,-438.93 1184.51,-429.34 1183.83,-439.06 1179.77,-430.2 1181.54,-439.79 1175.4,-432.21 
			1179.49,-441.06 1171.66,-435.25 1177.83,-442.8 1168.8,-439.12 1176.66,-444.9 1166.99,-443.58 1176.04,-447.23 		"/>
		<polygon class="st16" points="1187.55,-521.54 1171.08,-493 1204.03,-493 		"/>
		<polygon class="st18" points="1187.47,-514.01 1168.89,-479.01 1206.05,-479.01 		"/>
		<circle class="st19" cx="1151.05" cy="-454.01" r="9"/>
		<circle class="st19" cx="1112.55" cy="-464.51" r="5.5"/>
		<circle class="st19" cx="1095.55" cy="-458.51" r="3.5"/>
		<circle class="st19" cx="1133.05" cy="-467.01" r="7"/>
		<path class="st19" d="M1210.05-452.01c0,4.97,4.03,9,9,9s9-4.03,9-9c0-4.97-4.03-9-9-9S1210.05-456.98,1210.05-452.01z"/>
		<circle class="st19" cx="1257.55" cy="-462.51" r="5.5"/>
		<path class="st19" d="M1271.05-456.51c0,1.93,1.57,3.5,3.5,3.5s3.5-1.57,3.5-3.5c0-1.93-1.57-3.5-3.5-3.5
			S1271.05-458.44,1271.05-456.51z"/>
		<circle class="st19" cx="1237.05" cy="-465.01" r="7"/>
		<path class="st20" d="M1109.31-398.06c-7.97,3.07-13.27,6.45-12.57,8.27c0.66,1.7,6.38,1.56,13.97-0.1
			c-5.19,4.16-8.11,7.79-7.03,9.16c1,1.27,5.21,0.29,10.7-2.24c0.02-0.01,0.05-0.02,0.07-0.03c-3.36,5.23-4.8,9.33-3.33,10.32
			c0.28,0.19,0.64,0.25,1.09,0.21c2.35-0.24,6.86-3.55,11.7-8.55c-2.25,7.62-2.56,13.56-0.5,14.19c0.32,0.1,0.69,0.06,1.08-0.1
			c0.03-0.01,0.06-0.02,0.09-0.04c2.53-1.05,6.41-6.96,9.62-14.76c0,10.69,2.17,19.35,4.85,19.35c2.22,0,4.08-5.92,4.67-14.01
			c2.48,6.26,5.31,10.35,7.21,9.94c1.96-0.42,2.36-5.55,1.24-12.47c-0.02-0.1-0.03-0.21-0.05-0.31c0-0.02-0.01-0.05-0.01-0.07
			c5.45,5.97,10.53,9.64,12.39,8.71c1.73-1.33-0.86-7.54-5.96-14.76c0.12,0.07,0.24,0.13,0.36,0.2c0.02,0.01,0.04,0.03,0.07,0.04
			c6.68,3.67,12.11,5.38,13.32,3.94c1.27-1.52-2.48-6.06-8.83-11.07c8.2,1.87,14.51,2.09,15.19,0.29c0.55-1.44-2.67-3.84-7.98-6.28
			c6.92-0.73,11.65-2.18,11.65-3.86c0-1.96-6.48-3.62-15.37-4.16c7.46-3.04,12.35-6.28,11.65-8.03c-0.68-1.7-6.45-1.51-14.07,0.23
			c6.9-5.02,11.1-9.71,9.84-11.31c-1.43-1.82-9.4,0.97-18.32,6.29c6.66-8.18,10.35-15.72,8.29-17.11
			c-1.74-1.17-7.07,2.43-12.86,8.42c0,0.01,0,0.02-0.01,0.03c-0.01,0.01-0.01,0.02-0.02,0.02c0-0.01,0.01-0.02,0.01-0.03
			c2.22-7.58,2.52-13.46,0.47-14.09c-1.92-0.58-5.37,3.63-8.59,10.12c0-0.01,0-0.02,0-0.03c-0.83-5.99-2.43-10.05-4.26-10.05
			c-2.12,0-3.93,5.45-4.59,13.04c-2.07-6.72-4.7-11.25-6.68-10.94c-2,0.31-2.76,5.5-2.11,12.59c0,0.01,0,0.02,0,0.02
			c-5.41-5.84-10.37-9.34-12.11-8.24c-1.68,1.06,0.16,6.12,4.2,12.35c-0.01-0.01-0.02-0.01-0.04-0.02
			c-7.28-4.18-13.35-6.22-14.64-4.68c-1.27,1.52,2.48,6.06,8.83,11.07c-8.2-1.87-14.51-2.09-15.19-0.29
			c-0.86,2.27,7.6,6.91,18.91,10.35c0.14,0.04,0.27,0.08,0.41,0.12c-11.31,0.14-20.26,2.03-20.26,4.34
			C1095.8-400.26,1101.39-398.7,1109.31-398.06z"/>
		<ellipse class="st21" cx="1137.84" cy="-403.96" rx="21.62" ry="19.96"/>
		<ellipse class="st6" cx="1135.03" cy="-405.22" rx="16.08" ry="14.93"/>
		<path class="st20" d="M1259.69-397.6c7.97,3.07,13.27,6.45,12.57,8.27c-0.66,1.7-6.38,1.56-13.97-0.1
			c5.19,4.16,8.11,7.79,7.03,9.16c-1,1.27-5.21,0.29-10.7-2.24c-0.02-0.01-0.05-0.02-0.07-0.03c3.36,5.23,4.8,9.33,3.33,10.32
			c-0.28,0.19-0.64,0.25-1.09,0.21c-2.35-0.24-6.86-3.55-11.7-8.55c2.25,7.62,2.56,13.56,0.5,14.19c-0.32,0.1-0.69,0.06-1.08-0.1
			c-0.03-0.01-0.06-0.02-0.09-0.04c-2.53-1.05-6.41-6.96-9.62-14.76c0,10.69-2.17,19.35-4.85,19.35c-2.22,0-4.08-5.92-4.67-14.01
			c-2.48,6.26-5.31,10.35-7.21,9.94c-1.96-0.42-2.36-5.55-1.24-12.47c0.02-0.1,0.03-0.21,0.05-0.31c0-0.02,0.01-0.05,0.01-0.07
			c-5.45,5.97-10.53,9.64-12.39,8.71c-1.73-1.33,0.86-7.54,5.96-14.76c-0.12,0.07-0.24,0.13-0.36,0.2
			c-0.02,0.01-0.04,0.03-0.07,0.04c-6.68,3.67-12.11,5.38-13.32,3.94c-1.27-1.52,2.48-6.06,8.83-11.07
			c-8.2,1.87-14.51,2.09-15.19,0.29c-0.55-1.44,2.67-3.84,7.98-6.28c-6.92-0.72-11.65-2.18-11.65-3.86c0-1.96,6.48-3.62,15.37-4.16
			c-7.47-3.04-12.35-6.28-11.65-8.03c0.68-1.7,6.45-1.51,14.07,0.23c-6.9-5.02-11.1-9.71-9.84-11.31c1.43-1.82,9.4,0.97,18.32,6.29
			c-6.66-8.18-10.35-15.72-8.29-17.11c1.74-1.17,7.07,2.43,12.86,8.42c0,0.01,0,0.02,0.01,0.03c0.01,0.01,0.01,0.02,0.02,0.02
			c0-0.01-0.01-0.02-0.01-0.03c-2.22-7.58-2.52-13.46-0.47-14.09c1.92-0.58,5.37,3.63,8.59,10.12c0-0.01,0-0.02,0-0.03
			c0.83-5.99,2.43-10.05,4.26-10.05c2.12,0,3.93,5.45,4.59,13.04c2.07-6.72,4.7-11.25,6.68-10.94c2,0.31,2.76,5.5,2.11,12.59
			c0,0.01,0,0.02,0,0.02c5.41-5.84,10.37-9.34,12.11-8.24c1.68,1.06-0.16,6.12-4.2,12.35c0.01-0.01,0.02-0.01,0.04-0.02
			c7.28-4.18,13.35-6.22,14.64-4.68c1.27,1.52-2.48,6.06-8.83,11.07c8.2-1.87,14.51-2.09,15.19-0.29c0.86,2.27-7.6,6.91-18.91,10.35
			c-0.14,0.04-0.27,0.08-0.41,0.12c11.31,0.14,20.26,2.03,20.26,4.34C1273.19-399.81,1267.61-398.25,1259.69-397.6z"/>
		<ellipse class="st21" cx="1231.16" cy="-402.51" rx="21.62" ry="19.96"/>
		<ellipse class="st6" cx="1233.96" cy="-403.77" rx="16.08" ry="14.93"/>
		<path class="st22" d="M1218.04-499.46c0,0.82-2.62,1.48-5.85,1.48s-5.85-0.66-5.85-1.48s2.62-1.48,5.85-1.48
			S1218.04-500.28,1218.04-499.46z"/>
		
			<ellipse transform="matrix(0.9993 -0.0376 0.0376 0.9993 19.8969 45.4295)" class="st22" cx="1218.05" cy="-506.4" rx="1.31" ry="6.62"/>
		<ellipse class="st22" cx="1224.2" cy="-499.45" rx="5.85" ry="1.48"/>
		
			<ellipse transform="matrix(0.9993 -0.0376 0.0376 0.9993 19.3792 45.452)" class="st22" cx="1218.39" cy="-492.62" rx="1.31" ry="6.62"/>
		
			<ellipse transform="matrix(0.7073 -0.7069 0.7069 0.7073 705.1682 713.1703)" class="st23" cx="1213.78" cy="-494.95" rx="6.2" ry="1.39"/>
		
			<ellipse transform="matrix(0.7689 -0.6393 0.6393 0.7689 603.098 659.6594)" class="st23" cx="1214.16" cy="-504.53" rx="1.38" ry="6.27"/>
		
			<ellipse transform="matrix(0.7073 -0.7069 0.7069 0.7073 714.1223 716.9639)" class="st23" cx="1222.84" cy="-503.86" rx="6.2" ry="1.39"/>
		
			<ellipse transform="matrix(0.7689 -0.6393 0.6393 0.7689 598.5367 667.2885)" class="st23" cx="1222.43" cy="-494.4" rx="1.38" ry="6.27"/>
		<ellipse class="st24" cx="1218.26" cy="-499.85" rx="2.73" ry="2.9"/>
		<path class="st22" d="M1183.93-448.91c0,0.82-2.62,1.48-5.85,1.48s-5.85-0.66-5.85-1.48s2.62-1.48,5.85-1.48
			S1183.93-449.72,1183.93-448.91z"/>
		
			<ellipse transform="matrix(0.9993 -0.0376 0.0376 0.9993 17.9723 44.1829)" class="st22" cx="1183.94" cy="-455.84" rx="1.31" ry="6.62"/>
		<ellipse class="st22" cx="1190.09" cy="-448.89" rx="5.85" ry="1.48"/>
		
			<ellipse transform="matrix(0.9993 -0.0376 0.0376 0.9993 17.4547 44.2055)" class="st22" cx="1184.28" cy="-442.07" rx="1.31" ry="6.62"/>
		
			<ellipse transform="matrix(0.7073 -0.7069 0.7069 0.7073 659.4445 703.8547)" class="st23" cx="1179.67" cy="-444.39" rx="6.2" ry="1.39"/>
		
			<ellipse transform="matrix(0.7689 -0.6393 0.6393 0.7689 562.8947 649.5331)" class="st23" cx="1180.04" cy="-453.97" rx="1.38" ry="6.27"/>
		
			<ellipse transform="matrix(0.7073 -0.7069 0.7069 0.7073 668.3986 707.6483)" class="st23" cx="1188.72" cy="-453.31" rx="6.2" ry="1.39"/>
		
			<ellipse transform="matrix(0.7689 -0.6393 0.6393 0.7689 558.3334 657.1621)" class="st23" cx="1188.32" cy="-443.85" rx="1.38" ry="6.27"/>
		<ellipse class="st24" cx="1184.15" cy="-449.3" rx="2.73" ry="2.9"/>
		<path class="st22" d="M1156.93-497.91c0,0.82-2.62,1.48-5.85,1.48s-5.85-0.66-5.85-1.48s2.62-1.48,5.85-1.48
			S1156.93-498.72,1156.93-497.91z"/>
		
			<ellipse transform="matrix(0.9993 -0.0376 0.0376 0.9993 19.7952 43.1333)" class="st22" cx="1156.94" cy="-504.84" rx="1.31" ry="6.62"/>
		<ellipse class="st22" cx="1163.09" cy="-497.89" rx="5.85" ry="1.48"/>
		
			<ellipse transform="matrix(0.9993 -0.0376 0.0376 0.9993 19.2775 43.1559)" class="st22" cx="1157.28" cy="-491.07" rx="1.31" ry="6.62"/>
		
			<ellipse transform="matrix(0.7073 -0.7069 0.7069 0.7073 686.1805 670.4252)" class="st23" cx="1152.67" cy="-493.39" rx="6.2" ry="1.39"/>
		
			<ellipse transform="matrix(0.7689 -0.6393 0.6393 0.7689 587.9827 620.9495)" class="st23" cx="1153.04" cy="-502.97" rx="1.38" ry="6.27"/>
		
			<ellipse transform="matrix(0.7073 -0.7069 0.7069 0.7073 695.1346 674.2188)" class="st23" cx="1161.72" cy="-502.31" rx="6.2" ry="1.39"/>
		
			<ellipse transform="matrix(0.7689 -0.6393 0.6393 0.7689 583.4215 628.5785)" class="st23" cx="1161.32" cy="-492.85" rx="1.38" ry="6.27"/>
		<ellipse class="st24" cx="1157.15" cy="-498.3" rx="2.73" ry="2.9"/>
		<ellipse class="st22" cx="1262.08" cy="-331.91" rx="5.85" ry="1.48"/>
		
			<ellipse transform="matrix(0.9993 -0.0376 0.0376 0.9993 13.6335 47.4232)" class="st22" cx="1267.94" cy="-338.84" rx="1.31" ry="6.62"/>
		<ellipse class="st22" cx="1274.09" cy="-331.89" rx="5.85" ry="1.48"/>
		
			<ellipse transform="matrix(0.9993 -0.0376 0.0376 0.9993 13.1159 47.4458)" class="st22" cx="1268.28" cy="-325.07" rx="1.31" ry="6.62"/>
		
			<ellipse transform="matrix(0.7073 -0.7069 0.7069 0.7073 601.3222 797.4827)" class="st23" cx="1263.67" cy="-327.39" rx="6.2" ry="1.39"/>
		
			<ellipse transform="matrix(0.7689 -0.6393 0.6393 0.7689 507.5031 730.2701)" class="st23" cx="1264.04" cy="-336.97" rx="1.38" ry="6.27"/>
		
			<ellipse transform="matrix(0.7073 -0.7069 0.7069 0.7073 610.2763 801.2762)" class="st23" cx="1272.72" cy="-336.31" rx="6.2" ry="1.39"/>
		
			<ellipse transform="matrix(0.7689 -0.6393 0.6393 0.7689 502.9419 737.8992)" class="st23" cx="1272.32" cy="-326.85" rx="1.38" ry="6.27"/>
		<ellipse class="st24" cx="1268.15" cy="-332.3" rx="2.73" ry="2.9"/>
		<ellipse class="st22" cx="1098.08" cy="-331.91" rx="5.85" ry="1.48"/>
		
			<ellipse transform="matrix(0.9993 -0.0376 0.0376 0.9993 13.5176 41.2584)" class="st22" cx="1103.94" cy="-338.84" rx="1.31" ry="6.62"/>
		<ellipse class="st22" cx="1110.09" cy="-331.89" rx="5.85" ry="1.48"/>
		
			<ellipse transform="matrix(0.9993 -0.0376 0.0376 0.9993 13 41.2809)" class="st22" cx="1104.28" cy="-325.07" rx="1.31" ry="6.62"/>
		
			<ellipse transform="matrix(0.7073 -0.7069 0.7069 0.7073 553.3182 681.5478)" class="st23" cx="1099.67" cy="-327.39" rx="6.2" ry="1.39"/>
		
			<ellipse transform="matrix(0.7689 -0.6393 0.6393 0.7689 469.6092 625.4214)" class="st23" cx="1100.04" cy="-336.97" rx="1.38" ry="6.27"/>
		
			<ellipse transform="matrix(0.7073 -0.7069 0.7069 0.7073 562.2724 685.3413)" class="st23" cx="1108.72" cy="-336.31" rx="6.2" ry="1.39"/>
		
			<ellipse transform="matrix(0.7689 -0.6393 0.6393 0.7689 465.048 633.0505)" class="st23" cx="1108.32" cy="-326.85" rx="1.38" ry="6.27"/>
		<ellipse class="st24" cx="1104.15" cy="-332.3" rx="2.73" ry="2.9"/>
		<path class="st25" d="M1274.86-482.1c4.32-5.7-3.5-11.76-17.46-13.52c-11.17-1.41-23.03,1.14-26.48,5.71
			c-2.76,3.65,2.24,7.53,11.18,8.66c7.15,0.9,14.74-0.73,16.95-3.65c1.77-2.34-1.43-4.82-7.15-5.54c-4.58-0.58-9.43,0.47-10.85,2.34
			c-1.13,1.5,0.92,3.08,4.58,3.55c2.93,0.37,6.04-0.3,6.94-1.5c0.72-0.96-0.59-1.97-2.93-2.27c-1.87-0.24-3.86,0.19-4.44,0.96"/>
		<path class="st26" d="M1091.73-482.83c-5.15-5.82,4.18-11.99,20.83-13.79c13.32-1.44,27.47,1.17,31.59,5.82
			c3.3,3.72-2.67,7.67-13.33,8.82c-8.53,0.92-17.58-0.75-20.22-3.72c-2.11-2.38,1.71-4.91,8.53-5.65
			c5.46-0.59,11.25,0.48,12.94,2.38c1.35,1.52-1.09,3.14-5.46,3.61c-3.49,0.38-7.2-0.31-8.28-1.53c-0.86-0.98,0.7-2.01,3.49-2.31
			c2.24-0.24,4.61,0.2,5.3,0.98"/>
	</g>
	<path class="st13" d="M1105.71-510.58l0-0.05c6.29,0.05,12.68,0.35,18.94,0.98c-0.85-0.28-1.95-0.73-3.07-1.27
		c-2.07-1.01-3.41-1.96-2.98-2.12c0.43-0.16,2.46,0.53,4.53,1.54c1.79,0.87,3.03,1.7,3.06,2.01c9.07,1.01,18.26,2.7,23.31,5.61
		c1.49,0.86,2.47,1.88,2.72,2.91l-13.35-0.65c0.04-0.06,0.09-0.13,0.14-0.19l0.02-0.07l0.06-0.13c0-0.07,0.01-0.14,0.02-0.21
		c-0.02-0.04-0.03-0.18-0.05-0.22c-0.03-0.06-0.09-0.18-0.11-0.24c-0.04-0.05-0.15-0.2-0.19-0.25l-0.17-0.17
		c-0.33-0.34-0.88-0.67-1.44-0.99c-1.63-0.85-3.76-1.6-6.14-2.28c-0.07,0.25-2.17,0.64-4.88,0.89c-2.86,0.27-5.33,0.28-5.5,0.03
		c-0.18-0.25,2.01-0.67,4.87-0.93c2.03-0.19,3.86-0.25,4.81-0.18c-2.12-0.58-4.42-1.09-6.72-1.55c-3.71-0.73-7.65-1.33-11.66-1.82
		C1109.88-510.16,1107.81-510.38,1105.71-510.58z"/>
	<path class="st13" d="M1264.05-509.02v-0.05c-5.3-0.25-10.7-0.26-16,0.05c0.73-0.22,1.68-0.6,2.64-1.07
		c1.79-0.87,2.95-1.71,2.6-1.89c-0.35-0.17-2.09,0.39-3.88,1.26c-1.55,0.75-2.63,1.49-2.66,1.78c-7.69,0.54-15.5,1.72-19.87,4.27
		c-1.29,0.75-2.16,1.68-2.41,2.66h11.28c-0.03-0.06-0.07-0.13-0.11-0.19l-0.02-0.06l-0.04-0.13c0-0.07,0-0.14-0.01-0.2
		c0.02-0.04,0.04-0.17,0.05-0.21c0.03-0.05,0.08-0.17,0.11-0.22c0.03-0.04,0.14-0.18,0.17-0.23l0.15-0.16
		c0.29-0.3,0.77-0.6,1.26-0.88c1.41-0.73,3.24-1.35,5.27-1.89c0.05,0.24,1.8,0.71,4.07,1.08c2.4,0.39,4.48,0.51,4.63,0.28
		c0.16-0.23-1.66-0.73-4.06-1.12c-1.7-0.27-3.24-0.42-4.05-0.4c1.81-0.45,3.77-0.84,5.73-1.16c3.15-0.52,6.5-0.91,9.9-1.19
		C1260.53-508.82,1262.28-508.93,1264.05-509.02z"/>
</g>
<ellipse class="st0" cx="2086" cy="-271" rx="79.5" ry="18.5"/>
<ellipse class="st27" cx="1401" cy="-325" rx="40.5" ry="28.5"/>
<ellipse class="st27" cx="1764" cy="-284" rx="37.5" ry="33.5"/>
<g>
	<g>
		<path class="st0" d="M1736.48,98.52c0.38,12.34,2.32,24.58,1.25,36.93c41.47-0.63,74.27-8.65,74.27-18.46
			C1812,107.09,1778.54,99.01,1736.48,98.52z"/>
		<circle class="st28" cx="1773" cy="117.5" r="13"/>
	</g>
	<path class="st13" d="M1576.16-0.6l0-0.05c6.29,0.05,12.68,0.35,18.94,0.98c-0.85-0.28-1.95-0.73-3.07-1.27
		c-2.07-1.01-3.41-1.96-2.98-2.12c0.43-0.16,2.46,0.53,4.53,1.54c1.79,0.87,3.03,1.7,3.06,2.01c9.07,1.01,18.26,2.7,23.31,5.61
		c1.49,0.86,2.47,1.88,2.72,2.91l-13.35-0.65c0.04-0.06,0.09-0.13,0.14-0.19l0.02-0.06l0.06-0.13c0-0.07,0.01-0.14,0.02-0.21
		c-0.02-0.04-0.03-0.18-0.05-0.22c-0.03-0.06-0.09-0.18-0.11-0.24c-0.04-0.05-0.15-0.2-0.19-0.25l-0.17-0.17
		c-0.33-0.34-0.88-0.67-1.44-0.99c-1.63-0.85-3.76-1.6-6.14-2.28c-0.07,0.25-2.17,0.64-4.88,0.89c-2.86,0.27-5.33,0.28-5.5,0.03
		c-0.18-0.25,2.01-0.67,4.87-0.93c2.03-0.19,3.86-0.25,4.81-0.18c-2.12-0.58-4.42-1.09-6.72-1.55c-3.71-0.73-7.65-1.33-11.66-1.82
		C1580.32-0.18,1578.25-0.4,1576.16-0.6z"/>
	<path class="st13" d="M1734.5,0.99V0.94c-5.3-0.25-10.7-0.26-16,0.05c0.73-0.22,1.68-0.6,2.64-1.07c1.79-0.87,2.95-1.71,2.6-1.89
		c-0.35-0.17-2.09,0.39-3.88,1.26c-1.55,0.75-2.63,1.49-2.66,1.78c-7.69,0.54-15.5,1.72-19.87,4.27c-1.29,0.75-2.16,1.68-2.41,2.66
		l11.28,0c-0.03-0.06-0.07-0.13-0.11-0.19l-0.02-0.06l-0.04-0.13c0-0.07,0-0.14-0.01-0.2c0.02-0.04,0.04-0.17,0.05-0.21
		c0.03-0.05,0.08-0.17,0.11-0.22c0.03-0.04,0.14-0.18,0.17-0.23l0.15-0.16c0.29-0.3,0.77-0.6,1.26-0.88
		c1.41-0.73,3.24-1.35,5.27-1.89c0.05,0.24,1.8,0.71,4.07,1.08c2.4,0.39,4.48,0.51,4.63,0.28c0.16-0.23-1.66-0.73-4.06-1.12
		c-1.7-0.27-3.24-0.42-4.05-0.4c1.81-0.45,3.77-0.84,5.73-1.16c3.15-0.52,6.5-0.91,9.9-1.19C1730.97,1.19,1732.73,1.08,1734.5,0.99z
		"/>
	<g>
		<g>
			<path class="st0" d="M1569.25,119.21c-0.44-6.9-1.17-13.78-1.39-20.69c-42.21,0.44-75.86,8.55-75.86,18.48
				c0,10.02,34.26,18.18,77.02,18.49C1569.44,130.08,1569.6,124.72,1569.25,119.21z"/>
		</g>
		<circle class="st28" cx="1537" cy="117.5" r="13"/>
	</g>
	<g>
		<g>
			<defs>
				<path id="SVGID_00000063606847726928403530000015656032850516970431_" d="M1703,261h-48h-48c-0.5-11.29-6.63-21.51-16.25-28.91
					c-9.63-7.4-22.75-11.97-37.25-11.97c0,0,0-8.16,0-19.6c0-3.81,0-7.98,0-12.34c0.25-0.84,0.6-2.28,1.06-4.31
					c10.94-34.87,10.94-70.87,3.76-107.01c-0.26-2.24-0.52-4.49-0.83-7.28c-1.2-8.66-2.56-17.32-3.99-25.96
					c0-2.06-0.01-4.94-0.01-4.94c0-15.38,8-29.29,21.19-39.37S1606.26-17,1627-17h29h29c18.74,0,36.12,6.23,48.81,16.31
					s20.69,24,20.69,39.37c0,0,0,1.56,0,4.28c0,0.68-0.06,1.91-0.22,4.06c-1.11,6.85-2.11,13.71-2.97,20.56
					c-0.43,3.43-0.87,7.96-1.27,12.41c-7.55,34.01-5.55,68.01,2.28,100.58c0.22,1.99,0.38,3.29,0.56,4.96
					c0.31,1.7,0.62,3.4,0.96,5.1c0.36,1.96,0.63,3.56,0.65,3.92c0,14.45,0,25.56,0,25.56c-14.5,0-27.62,4.58-37,11.97
					C1708.13,239.49,1702.5,249.71,1703,261z"/>
			</defs>
			<use xlink:href="#SVGID_00000063606847726928403530000015656032850516970431_"  style="overflow:visible;fill:#E9008A;"/>
			<clipPath id="SVGID_00000099640511570731247800000015686002767872712345_">
				<use xlink:href="#SVGID_00000063606847726928403530000015656032850516970431_"  style="overflow:visible;"/>
			</clipPath>
			
				<path style="clip-path:url(#SVGID_00000099640511570731247800000015686002767872712345_);fill:#FFFFFF;stroke:#000000;stroke-width:4;stroke-miterlimit:10;" d="
				M2805.39,96c0,6.33-23.01,11.46-51.39,11.46s-51.39-5.13-51.39-11.46s23.01-11.46,51.39-11.46S2805.39,89.67,2805.39,96z"/>
		</g>
		<g>
			<path class="st15" d="M1606.89,262.61v-16.74c0-4.13,3.36-7.49,7.49-7.49h0.83c3.99,0,7.24,3.25,7.24,7.24v16.99H1606.89z"/>
			<path d="M1615.21,238.77c3.78,0,6.85,3.07,6.85,6.85v16.6h-14.79v-16.35c0-3.92,3.19-7.1,7.1-7.1H1615.21 M1615.21,238h-0.83
				c-4.35,0-7.87,3.53-7.87,7.87V263h16.33v-17.37C1622.83,241.41,1619.42,238,1615.21,238L1615.21,238z"/>
		</g>
		<g>
			<path class="st15" d="M1623.22,262.61v-16.74c0-4.13,3.36-7.49,7.49-7.49h0.83c3.99,0,7.24,3.25,7.24,7.24v16.99H1623.22z"/>
			<path d="M1631.54,238.77c3.78,0,6.85,3.07,6.85,6.85v16.6h-14.79v-16.35c0-3.92,3.19-7.1,7.1-7.1H1631.54 M1631.54,238h-0.83
				c-4.35,0-7.87,3.53-7.87,7.87V263h16.33v-17.37C1639.17,241.41,1635.75,238,1631.54,238L1631.54,238z"/>
		</g>
		<g>
			<path class="st15" d="M1639.55,262.61v-16.74c0-4.13,3.36-7.49,7.49-7.49h0.83c3.99,0,7.24,3.25,7.24,7.24v16.99H1639.55z"/>
			<path d="M1647.87,238.77c3.78,0,6.85,3.07,6.85,6.85v16.6h-14.79v-16.35c0-3.92,3.19-7.1,7.1-7.1H1647.87 M1647.87,238h-0.83
				c-4.35,0-7.87,3.53-7.87,7.87V263h16.33v-17.37C1655.5,241.41,1652.09,238,1647.87,238L1647.87,238z"/>
		</g>
		<g>
			<path class="st15" d="M1655.89,262.61v-16.74c0-4.13,3.36-7.49,7.49-7.49h0.83c3.99,0,7.24,3.25,7.24,7.24v16.99H1655.89z"/>
			<path d="M1664.21,238.77c3.78,0,6.85,3.07,6.85,6.85v16.6h-14.79v-16.35c0-3.92,3.19-7.1,7.1-7.1H1664.21 M1664.21,238h-0.83
				c-4.35,0-7.87,3.53-7.87,7.87V263h16.33v-17.37C1671.83,241.41,1668.42,238,1664.21,238L1664.21,238z"/>
		</g>
		<g>
			<path class="st15" d="M1672.22,262.61v-16.74c0-4.13,3.36-7.49,7.49-7.49h0.83c3.99,0,7.24,3.25,7.24,7.24v16.99H1672.22z"/>
			<path d="M1680.54,238.77c3.78,0,6.85,3.07,6.85,6.85v16.6h-14.79v-16.35c0-3.92,3.19-7.1,7.1-7.1H1680.54 M1680.54,238h-0.83
				c-4.35,0-7.87,3.53-7.87,7.87V263h16.33v-17.37C1688.17,241.41,1684.75,238,1680.54,238L1680.54,238z"/>
		</g>
		<g>
			<path class="st15" d="M1688.55,262.61v-16.74c0-4.13,3.36-7.49,7.49-7.49h0.83c3.99,0,7.24,3.25,7.24,7.24v16.99H1688.55z"/>
			<path d="M1696.87,238.77c3.78,0,6.85,3.07,6.85,6.85v16.6h-14.79v-16.35c0-3.92,3.19-7.1,7.1-7.1H1696.87 M1696.87,238h-0.83
				c-4.35,0-7.87,3.53-7.87,7.87V263h16.33v-17.37C1704.5,241.41,1701.09,238,1696.87,238L1696.87,238z"/>
		</g>
		<path d="M1564.03,190.35c2.42,6.85,10.17,8.9,16.13,8.03c0.23-0.03,0.46-0.09,0.68-0.15c15.14-4.41,29.5-5.65,44.48-5.5
			c2.85,0.03,5.18-2.26,5.18-5.11v-0.28c0-2.8-2.25-5.08-5.06-5.12c-1.36-0.02-2.72-0.03-4.08-0.03
			c-16.75-0.86-30.67,10.97-47.51,13.09c-0.24,0.03-0.48,0.04-0.71,0.04C1569.26,195.33,1565.46,195.18,1564.03,190.35
			L1564.03,190.35z"/>
		<path d="M1743.97,190.39c-2.42,6.85-10.17,8.9-16.13,8.03c-0.23-0.03-0.46-0.09-0.68-0.15c-15.14-4.41-29.5-5.65-44.48-5.5
			c-2.85,0.03-5.18-2.26-5.18-5.11v-0.28c0-2.8,2.25-5.08,5.06-5.12c1.36-0.02,2.72-0.03,4.08-0.03
			c16.75-0.86,30.67,10.97,47.51,13.09c0.24,0.03,0.48,0.04,0.71,0.04C1738.74,195.36,1742.54,195.22,1743.97,190.39L1743.97,190.39
			z"/>
		<path d="M1658.62,132.03c12.26,7.54,4.65,20.98,12.22,32.76c2.85,4.43-11.1,6.15-11.71,1.42c-0.01-0.06-0.05-0.14-0.02-0.19
			c3.49-6.88,0.99-27.93-2.65-34.81L1658.62,132.03z"/>
		<path d="M1651.05,132.02c-11.78,8.63-3.39,21.35-10.24,33.79c-2.57,4.68,11.43,5.12,11.75,0.36c0-0.06,0.05-0.14,0.01-0.19
			c-3.89-6.55-2.64-27.77,0.58-34.97L1651.05,132.02z"/>
		<circle class="st15" cx="1615.5" cy="156" r="7"/>
		<circle class="st16" cx="1602.5" cy="172" r="5"/>
		<circle class="st16" cx="1586.5" cy="177" r="3"/>
		<circle class="st16" cx="1577" cy="174.5" r="2.5"/>
		<circle class="st16" cx="1691.5" cy="157" r="7"/>
		<circle class="st16" cx="1709.5" cy="173" r="5"/>
		<circle class="st16" cx="1727.5" cy="176" r="3"/>
		<circle class="st16" cx="1739" cy="176.5" r="2.5"/>
		<polygon class="st17" points="1636.8,60.66 1646.46,59.38 1637.36,55.88 1647.04,57.04 1639.09,51.39 1648.19,54.92 
			1641.89,47.47 1649.82,53.15 1645.58,44.37 1651.84,51.85 1649.91,42.29 1654.12,51.08 1654.63,41.34 1656.52,50.91 
			1659.44,41.61 1658.89,51.34 1664.03,43.06 1661.08,52.35 1668.12,45.6 1662.94,53.87 1671.44,49.08 1664.38,55.8 1673.8,53.28 
			1665.28,58.03 1675.03,57.93 1665.6,60.42 1675.07,62.75 1665.32,62.81 1673.91,67.42 1664.45,65.06 1671.63,71.66 1663.05,67.01 
			1668.36,75.19 1661.21,68.56 1664.32,77.81 1659.04,69.61 1659.76,79.33 1656.68,70.08 1654.95,79.68 1654.28,69.95 
			1650.22,78.81 1651.98,69.22 1645.85,76.8 1649.94,67.95 1642.11,73.76 1648.28,66.21 1639.25,69.89 1647.1,64.11 1637.44,65.43 
			1646.48,61.78 		"/>
		<polygon class="st16" points="1658,-12.52 1641.52,16.01 1674.48,16.01 		"/>
		<polygon class="st18" points="1657.92,-5 1639.33,30 1676.5,30 		"/>
		<circle class="st19" cx="1621.5" cy="55" r="9"/>
		<circle class="st19" cx="1583" cy="44.5" r="5.5"/>
		<circle class="st19" cx="1566" cy="50.5" r="3.5"/>
		<circle class="st19" cx="1603.5" cy="42" r="7"/>
		<path class="st19" d="M1680.5,57c0,4.97,4.03,9,9,9s9-4.03,9-9s-4.03-9-9-9S1680.5,52.03,1680.5,57z"/>
		<circle class="st19" cx="1728" cy="46.5" r="5.5"/>
		<path class="st19" d="M1741.5,52.5c0,1.93,1.57,3.5,3.5,3.5s3.5-1.57,3.5-3.5s-1.57-3.5-3.5-3.5S1741.5,50.57,1741.5,52.5z"/>
		<circle class="st19" cx="1707.5" cy="44" r="7"/>
		<path class="st20" d="M1579.75,110.95c-7.97,3.07-13.27,6.45-12.57,8.27c0.66,1.7,6.38,1.56,13.97-0.1
			c-5.19,4.16-8.11,7.79-7.03,9.16c1,1.27,5.21,0.29,10.7-2.24c0.02-0.01,0.05-0.02,0.07-0.03c-3.36,5.23-4.8,9.33-3.33,10.32
			c0.28,0.19,0.64,0.25,1.09,0.21c2.35-0.24,6.86-3.55,11.7-8.55c-2.25,7.62-2.56,13.56-0.5,14.19c0.32,0.1,0.69,0.06,1.08-0.1
			c0.03-0.01,0.06-0.02,0.09-0.04c2.53-1.05,6.41-6.96,9.62-14.76c0,10.69,2.17,19.35,4.85,19.35c2.22,0,4.08-5.92,4.67-14.01
			c2.48,6.26,5.31,10.35,7.21,9.94c1.96-0.42,2.36-5.55,1.24-12.47c-0.02-0.1-0.03-0.21-0.05-0.31c0-0.02-0.01-0.05-0.01-0.07
			c5.45,5.97,10.53,9.64,12.39,8.71c1.73-1.33-0.86-7.54-5.96-14.76c0.12,0.07,0.24,0.13,0.36,0.2c0.02,0.01,0.04,0.03,0.07,0.04
			c6.68,3.67,12.11,5.38,13.32,3.94c1.27-1.52-2.48-6.06-8.83-11.07c8.2,1.87,14.51,2.09,15.19,0.29c0.55-1.44-2.67-3.84-7.98-6.28
			c6.92-0.72,11.65-2.18,11.65-3.86c0-1.96-6.48-3.62-15.37-4.16c7.47-3.04,12.35-6.28,11.65-8.03c-0.68-1.7-6.45-1.51-14.07,0.23
			c6.9-5.02,11.1-9.71,9.84-11.31c-1.43-1.82-9.4,0.97-18.32,6.29c6.66-8.18,10.35-15.72,8.29-17.11
			c-1.74-1.17-7.07,2.43-12.86,8.42c0,0.01,0,0.02-0.01,0.03c-0.01,0.01-0.01,0.02-0.02,0.02c0-0.01,0.01-0.02,0.01-0.03
			c2.22-7.58,2.52-13.46,0.47-14.09c-1.92-0.58-5.37,3.63-8.59,10.12c0-0.01,0-0.02,0-0.03c-0.83-5.99-2.43-10.05-4.26-10.05
			c-2.12,0-3.93,5.45-4.59,13.04c-2.07-6.72-4.7-11.25-6.68-10.94c-2,0.31-2.76,5.5-2.11,12.59c0,0.01,0,0.02,0,0.02
			c-5.41-5.84-10.37-9.34-12.11-8.24c-1.68,1.06,0.16,6.12,4.2,12.35c-0.01-0.01-0.02-0.01-0.04-0.02
			c-7.28-4.18-13.35-6.22-14.64-4.68c-1.27,1.52,2.48,6.06,8.83,11.07c-8.2-1.87-14.51-2.09-15.19-0.29
			c-0.86,2.27,7.6,6.91,18.91,10.35c0.14,0.04,0.27,0.08,0.41,0.12c-11.31,0.14-20.26,2.03-20.26,4.34
			C1566.25,108.75,1571.83,110.31,1579.75,110.95z"/>
		<ellipse class="st21" cx="1608.29" cy="105.05" rx="21.62" ry="19.96"/>
		<ellipse class="st6" cx="1605.48" cy="103.79" rx="16.08" ry="14.93"/>
		<path class="st20" d="M1730.14,111.41c7.97,3.07,13.27,6.45,12.57,8.27c-0.66,1.7-6.38,1.56-13.97-0.1
			c5.19,4.16,8.11,7.79,7.03,9.16c-1,1.27-5.21,0.29-10.7-2.24c-0.02-0.01-0.05-0.02-0.07-0.03c3.36,5.23,4.8,9.33,3.33,10.32
			c-0.28,0.19-0.64,0.25-1.09,0.21c-2.35-0.24-6.86-3.55-11.7-8.55c2.25,7.62,2.56,13.56,0.5,14.19c-0.32,0.1-0.69,0.06-1.08-0.1
			c-0.03-0.01-0.06-0.02-0.09-0.04c-2.53-1.05-6.41-6.96-9.62-14.76c0,10.69-2.17,19.35-4.85,19.35c-2.22,0-4.08-5.92-4.67-14.01
			c-2.48,6.26-5.31,10.35-7.21,9.94c-1.96-0.42-2.36-5.55-1.24-12.47c0.02-0.1,0.03-0.21,0.05-0.31c0-0.02,0.01-0.05,0.01-0.07
			c-5.45,5.97-10.53,9.64-12.39,8.71c-1.73-1.33,0.86-7.54,5.96-14.76c-0.12,0.07-0.24,0.13-0.36,0.2
			c-0.02,0.01-0.04,0.03-0.07,0.04c-6.68,3.67-12.11,5.38-13.32,3.94c-1.27-1.52,2.48-6.06,8.83-11.07
			c-8.2,1.87-14.51,2.09-15.19,0.29c-0.55-1.44,2.67-3.84,7.98-6.28c-6.92-0.72-11.65-2.18-11.65-3.86c0-1.96,6.48-3.62,15.37-4.16
			c-7.46-3.04-12.35-6.28-11.65-8.03c0.68-1.7,6.45-1.51,14.07,0.23c-6.9-5.02-11.1-9.71-9.84-11.31c1.43-1.82,9.4,0.97,18.32,6.29
			c-6.66-8.18-10.35-15.72-8.29-17.11c1.74-1.17,7.07,2.43,12.86,8.42c0,0.01,0,0.02,0.01,0.03c0.01,0.01,0.01,0.02,0.02,0.02
			c0-0.01-0.01-0.02-0.01-0.03c-2.22-7.58-2.52-13.46-0.47-14.09c1.92-0.58,5.37,3.63,8.59,10.12c0-0.01,0-0.02,0-0.03
			c0.83-5.99,2.43-10.05,4.26-10.05c2.12,0,3.93,5.45,4.59,13.04c2.07-6.72,4.7-11.25,6.68-10.94c2,0.31,2.76,5.5,2.11,12.59
			c0,0.01,0,0.02,0,0.02c5.41-5.84,10.37-9.34,12.11-8.24c1.68,1.06-0.16,6.12-4.2,12.35c0.01-0.01,0.02-0.01,0.04-0.02
			c7.28-4.18,13.35-6.22,14.64-4.68c1.27,1.52-2.48,6.06-8.83,11.07c8.2-1.87,14.51-2.09,15.19-0.29c0.86,2.27-7.6,6.91-18.91,10.35
			c-0.14,0.04-0.27,0.08-0.41,0.12c11.31,0.14,20.26,2.03,20.26,4.34C1743.64,109.2,1738.05,110.76,1730.14,111.41z"/>
		<ellipse class="st21" cx="1701.6" cy="106.5" rx="21.62" ry="19.96"/>
		<ellipse class="st6" cx="1704.41" cy="105.24" rx="16.08" ry="14.93"/>
		<path class="st22" d="M1688.49,9.55c0,0.82-2.62,1.48-5.85,1.48s-5.85-0.66-5.85-1.48c0-0.82,2.62-1.48,5.85-1.48
			S1688.49,8.73,1688.49,9.55z"/>
		
			<ellipse transform="matrix(0.9993 -0.0376 0.0376 0.9993 1.0952 63.4737)" class="st22" cx="1688.49" cy="2.61" rx="1.31" ry="6.62"/>
		<ellipse class="st22" cx="1694.65" cy="9.56" rx="5.85" ry="1.48"/>
		
			<ellipse transform="matrix(0.9993 -0.0376 0.0376 0.9993 0.5776 63.4963)" class="st22" cx="1688.83" cy="16.39" rx="1.31" ry="6.62"/>
		
			<ellipse transform="matrix(0.7073 -0.7069 0.7069 0.7073 483.0413 1194.7297)" class="st23" cx="1684.22" cy="14.06" rx="6.2" ry="1.39"/>
		
			<ellipse transform="matrix(0.7689 -0.6393 0.6393 0.7689 386.3783 1078.0383)" class="st23" cx="1684.6" cy="4.48" rx="1.38" ry="6.27"/>
		
			<ellipse transform="matrix(0.7073 -0.7069 0.7069 0.7073 491.9955 1198.5233)" class="st23" cx="1693.28" cy="5.15" rx="6.2" ry="1.39"/>
		
			<ellipse transform="matrix(0.7689 -0.6393 0.6393 0.7689 381.817 1085.6674)" class="st23" cx="1692.88" cy="14.61" rx="1.38" ry="6.27"/>
		<ellipse class="st24" cx="1688.71" cy="9.16" rx="2.73" ry="2.9"/>
		<path class="st22" d="M1654.38,60.1c0,0.82-2.62,1.48-5.86,1.48c-3.23,0-5.85-0.66-5.85-1.48s2.62-1.48,5.85-1.48
			C1651.76,58.63,1654.38,59.29,1654.38,60.1z"/>
		
			<ellipse transform="matrix(0.9993 -0.0376 0.0376 0.9993 -0.8293 62.2272)" class="st22" cx="1654.38" cy="53.17" rx="1.31" ry="6.62"/>
		<ellipse class="st22" cx="1660.53" cy="60.12" rx="5.85" ry="1.48"/>
		
			<ellipse transform="matrix(0.9993 -0.0376 0.0376 0.9993 -1.347 62.2498)" class="st22" cx="1654.72" cy="66.94" rx="1.31" ry="6.62"/>
		
			<ellipse transform="matrix(0.7073 -0.7069 0.7069 0.7073 437.3176 1185.4142)" class="st23" cx="1650.11" cy="64.62" rx="6.2" ry="1.39"/>
		
			<ellipse transform="matrix(0.7689 -0.6393 0.6393 0.7689 346.175 1067.9119)" class="st23" cx="1650.49" cy="55.04" rx="1.38" ry="6.27"/>
		
			<ellipse transform="matrix(0.7073 -0.7069 0.7069 0.7073 446.2718 1189.2076)" class="st23" cx="1659.17" cy="55.71" rx="6.2" ry="1.39"/>
		
			<ellipse transform="matrix(0.7689 -0.6393 0.6393 0.7689 341.6137 1075.541)" class="st23" cx="1658.77" cy="65.16" rx="1.38" ry="6.27"/>
		<ellipse class="st24" cx="1654.6" cy="59.72" rx="2.73" ry="2.9"/>
		<path class="st22" d="M1627.38,11.1c0,0.82-2.62,1.48-5.86,1.48c-3.23,0-5.85-0.66-5.85-1.48s2.62-1.48,5.85-1.48
			C1624.76,9.63,1627.38,10.29,1627.38,11.1z"/>
		
			<ellipse transform="matrix(0.9993 -0.0376 0.0376 0.9993 0.9935 61.1776)" class="st22" cx="1627.38" cy="4.17" rx="1.31" ry="6.62"/>
		<ellipse class="st22" cx="1633.53" cy="11.12" rx="5.85" ry="1.48"/>
		
			<ellipse transform="matrix(0.9993 -0.0376 0.0376 0.9993 0.4759 61.2002)" class="st22" cx="1627.72" cy="17.94" rx="1.31" ry="6.62"/>
		
			<ellipse transform="matrix(0.7073 -0.7069 0.7069 0.7073 464.0536 1151.9846)" class="st23" cx="1623.11" cy="15.62" rx="6.2" ry="1.39"/>
		
			<ellipse transform="matrix(0.7689 -0.6393 0.6393 0.7689 371.2631 1039.3282)" class="st23" cx="1623.49" cy="6.04" rx="1.38" ry="6.27"/>
		
			<ellipse transform="matrix(0.7073 -0.7069 0.7069 0.7073 473.0078 1155.7782)" class="st23" cx="1632.17" cy="6.71" rx="6.2" ry="1.39"/>
		
			<ellipse transform="matrix(0.7689 -0.6393 0.6393 0.7689 366.7018 1046.9574)" class="st23" cx="1631.77" cy="16.16" rx="1.38" ry="6.27"/>
		<ellipse class="st24" cx="1627.6" cy="10.72" rx="2.73" ry="2.9"/>
		<ellipse class="st22" cx="1732.52" cy="177.1" rx="5.85" ry="1.48"/>
		
			<ellipse transform="matrix(0.9993 -0.0376 0.0376 0.9993 -5.1681 65.4675)" class="st22" cx="1738.38" cy="170.17" rx="1.31" ry="6.62"/>
		<ellipse class="st22" cx="1744.53" cy="177.12" rx="5.85" ry="1.48"/>
		
			<ellipse transform="matrix(0.9993 -0.0376 0.0376 0.9993 -5.6857 65.4901)" class="st22" cx="1738.72" cy="183.94" rx="1.31" ry="6.62"/>
		
			<ellipse transform="matrix(0.7073 -0.7069 0.7069 0.7073 379.1953 1279.0421)" class="st23" cx="1734.11" cy="181.62" rx="6.2" ry="1.39"/>
		
			<ellipse transform="matrix(0.7689 -0.6393 0.6393 0.7689 290.7834 1148.6489)" class="st23" cx="1734.49" cy="172.04" rx="1.38" ry="6.27"/>
		
			<ellipse transform="matrix(0.7073 -0.7069 0.7069 0.7073 388.1494 1282.8357)" class="st23" cx="1743.17" cy="172.71" rx="6.2" ry="1.39"/>
		
			<ellipse transform="matrix(0.7689 -0.6393 0.6393 0.7689 286.2222 1156.278)" class="st23" cx="1742.77" cy="182.16" rx="1.38" ry="6.27"/>
		<ellipse class="st24" cx="1738.6" cy="176.72" rx="2.73" ry="2.9"/>
		<ellipse class="st22" cx="1568.52" cy="177.1" rx="5.85" ry="1.48"/>
		
			<ellipse transform="matrix(0.9993 -0.0376 0.0376 0.9993 -5.284 59.3026)" class="st22" cx="1574.38" cy="170.17" rx="1.31" ry="6.62"/>
		<ellipse class="st22" cx="1580.53" cy="177.12" rx="5.85" ry="1.48"/>
		
			<ellipse transform="matrix(0.9993 -0.0376 0.0376 0.9993 -5.8016 59.3252)" class="st22" cx="1574.72" cy="183.94" rx="1.31" ry="6.62"/>
		
			<ellipse transform="matrix(0.7073 -0.7069 0.7069 0.7073 331.1914 1163.1072)" class="st23" cx="1570.11" cy="181.62" rx="6.2" ry="1.39"/>
		
			<ellipse transform="matrix(0.7689 -0.6393 0.6393 0.7689 252.8896 1043.8003)" class="st23" cx="1570.49" cy="172.04" rx="1.38" ry="6.27"/>
		
			<ellipse transform="matrix(0.7073 -0.7069 0.7069 0.7073 340.1455 1166.9008)" class="st23" cx="1579.17" cy="172.71" rx="6.2" ry="1.39"/>
		
			<ellipse transform="matrix(0.7689 -0.6393 0.6393 0.7689 248.3283 1051.4293)" class="st23" cx="1578.77" cy="182.16" rx="1.38" ry="6.27"/>
		<ellipse class="st24" cx="1574.6" cy="176.72" rx="2.73" ry="2.9"/>
		<path class="st25" d="M1745.31,26.91c4.32-5.7-3.5-11.76-17.46-13.52c-11.17-1.41-23.03,1.14-26.48,5.71
			c-2.76,3.65,2.24,7.53,11.18,8.66c7.15,0.9,14.74-0.73,16.95-3.65c1.77-2.34-1.43-4.82-7.15-5.54c-4.58-0.58-9.43,0.47-10.85,2.34
			c-1.13,1.5,0.92,3.08,4.58,3.55c2.93,0.37,6.04-0.3,6.94-1.5c0.72-0.96-0.59-1.97-2.93-2.27c-1.87-0.24-3.86,0.19-4.44,0.96"/>
		<path class="st26" d="M1562.17,26.18c-5.15-5.82,4.18-11.99,20.83-13.79c13.32-1.44,27.47,1.17,31.59,5.82
			c3.3,3.72-2.67,7.67-13.33,8.82c-8.53,0.92-17.58-0.75-20.22-3.72c-2.11-2.38,1.71-4.91,8.53-5.65
			c5.46-0.59,11.25,0.48,12.94,2.38c1.35,1.52-1.09,3.14-5.46,3.61c-3.49,0.38-7.2-0.31-8.28-1.53c-0.86-0.98,0.7-2.01,3.49-2.31
			c2.24-0.24,4.61,0.2,5.3,0.98"/>
	</g>
	<path class="st13" d="M1735.5,2.09V2.06c-5.56-0.17-11.22-0.18-16.79,0.04c0.76-0.16,1.76-0.42,2.77-0.75
		c1.88-0.61,3.1-1.2,2.73-1.32c-0.37-0.12-2.19,0.28-4.07,0.88c-1.62,0.53-2.76,1.04-2.79,1.25c-8.06,0.38-16.26,1.21-20.85,2.99
		c-1.35,0.53-2.27,1.18-2.53,1.86l11.83,0c-0.03-0.04-0.07-0.09-0.11-0.13l-0.02-0.04l-0.05-0.09c0-0.05,0-0.09-0.01-0.14
		c0.02-0.03,0.04-0.12,0.05-0.15c0.03-0.04,0.09-0.12,0.11-0.15c0.03-0.03,0.14-0.13,0.18-0.16l0.16-0.11
		c0.31-0.21,0.81-0.42,1.32-0.61c1.48-0.51,3.39-0.95,5.53-1.32c0.05,0.17,1.89,0.5,4.27,0.76c2.52,0.27,4.7,0.36,4.86,0.2
		c0.17-0.16-1.74-0.51-4.26-0.78c-1.79-0.19-3.4-0.29-4.25-0.28c1.9-0.32,3.95-0.58,6.01-0.81c3.31-0.37,6.82-0.64,10.39-0.84
		C1731.8,2.23,1733.64,2.15,1735.5,2.09z"/>
	<path class="st13" d="M1572.46,2.99l0-0.04c6.89-0.18,13.88-0.16,20.74,0.12c-0.93-0.19-2.13-0.51-3.35-0.9
		c-2.26-0.73-3.71-1.44-3.23-1.58c0.47-0.14,2.68,0.34,4.94,1.07c1.95,0.63,3.3,1.25,3.32,1.49c9.93,0.49,19.96,1.5,25.45,3.64
		c1.62,0.63,2.68,1.41,2.93,2.22l-14.62-0.05c0.04-0.05,0.1-0.11,0.15-0.15l0.03-0.05l0.07-0.11c0-0.05,0.01-0.11,0.03-0.17
		c-0.02-0.03-0.03-0.14-0.05-0.18c-0.03-0.05-0.09-0.14-0.12-0.18c-0.04-0.04-0.16-0.15-0.2-0.19l-0.19-0.13
		c-0.36-0.25-0.96-0.5-1.57-0.73c-1.78-0.61-4.1-1.14-6.69-1.59c-0.08,0.2-2.38,0.58-5.36,0.88c-3.14,0.31-5.84,0.41-6.03,0.21
		c-0.19-0.19,2.21-0.6,5.35-0.91c2.23-0.22,4.23-0.33,5.28-0.31c-2.32-0.38-4.83-0.71-7.34-0.99c-4.05-0.45-8.36-0.79-12.75-1.04
		C1577.02,3.17,1574.76,3.07,1572.46,2.99z"/>
</g>
<g>
	<g>
		<path class="st0" d="M251.03,124.52c0.38,12.34,2.32,24.58,1.25,36.93c41.47-0.63,74.27-8.65,74.27-18.46
			C326.55,133.09,293.09,125.01,251.03,124.52z"/>
		<circle class="st28" cx="287.55" cy="143.5" r="13"/>
	</g>
	<path class="st13" d="M90.71,25.4l0-0.05c6.29,0.05,12.68,0.35,18.94,0.98c-0.85-0.28-1.95-0.73-3.07-1.27
		c-2.07-1.01-3.41-1.96-2.98-2.12c0.43-0.16,2.46,0.53,4.53,1.54c1.79,0.87,3.03,1.7,3.06,2.01c9.07,1.01,18.26,2.7,23.31,5.61
		c1.49,0.86,2.47,1.88,2.72,2.91l-13.35-0.65c0.04-0.06,0.09-0.13,0.14-0.19l0.02-0.06l0.06-0.13c0-0.07,0.01-0.14,0.02-0.21
		c-0.02-0.04-0.03-0.18-0.05-0.22c-0.03-0.06-0.09-0.18-0.11-0.24c-0.04-0.05-0.15-0.2-0.19-0.25l-0.17-0.17
		c-0.33-0.34-0.88-0.67-1.44-0.99c-1.63-0.85-3.76-1.6-6.14-2.28c-0.07,0.25-2.17,0.64-4.88,0.89c-2.86,0.27-5.33,0.28-5.5,0.03
		c-0.18-0.25,2.01-0.67,4.87-0.93c2.03-0.19,3.86-0.25,4.81-0.18c-2.12-0.58-4.42-1.09-6.72-1.55c-3.71-0.73-7.65-1.33-11.66-1.82
		C94.88,25.82,92.81,25.6,90.71,25.4z"/>
	<path class="st13" d="M249.05,26.99v-0.05c-5.3-0.25-10.7-0.26-16,0.05c0.73-0.22,1.68-0.6,2.64-1.07c1.79-0.87,2.95-1.71,2.6-1.89
		c-0.35-0.17-2.09,0.39-3.88,1.26c-1.55,0.75-2.63,1.49-2.66,1.78c-7.69,0.54-15.5,1.72-19.87,4.27c-1.29,0.75-2.16,1.68-2.41,2.66
		l11.28,0c-0.03-0.06-0.07-0.13-0.11-0.19l-0.02-0.06l-0.04-0.13c0-0.07,0-0.14-0.01-0.2c0.02-0.04,0.04-0.17,0.05-0.21
		c0.03-0.05,0.08-0.17,0.11-0.22c0.03-0.04,0.14-0.18,0.17-0.23l0.15-0.16c0.29-0.3,0.77-0.6,1.26-0.88
		c1.41-0.73,3.24-1.35,5.27-1.89c0.05,0.24,1.8,0.71,4.07,1.08c2.4,0.39,4.48,0.51,4.63,0.28c0.16-0.23-1.66-0.73-4.06-1.12
		c-1.7-0.27-3.24-0.42-4.05-0.4c1.81-0.45,3.77-0.84,5.73-1.16c3.15-0.52,6.5-0.91,9.9-1.19C245.53,27.19,247.28,27.08,249.05,26.99
		z"/>
	<g>
		<g>
			<path class="st0" d="M83.8,145.21c-0.44-6.9-1.17-13.78-1.39-20.69C40.2,124.96,6.55,133.07,6.55,143
				c0,10.02,34.26,18.18,77.02,18.49C83.99,156.08,84.15,150.72,83.8,145.21z"/>
		</g>
		<circle class="st28" cx="51.55" cy="143.5" r="13"/>
	</g>
	<g>
		<g>
			<defs>
				<path id="SVGID_00000127018700303898796540000010861579226986748586_" d="M217.55,287h-48h-48
					c-0.5-11.29-6.63-21.51-16.25-28.91c-9.63-7.4-22.75-11.97-37.25-11.97c0,0,0-8.16,0-19.6c0-3.81,0-7.98,0-12.34
					c0.25-0.84,0.6-2.28,1.06-4.31C80.05,175,80.05,139,72.87,102.86c-0.26-2.24-0.52-4.49-0.83-7.28
					c-1.2-8.66-2.56-17.32-3.99-25.96c0-2.06-0.01-4.94-0.01-4.94c0-15.38,8-29.29,21.19-39.37S120.81,9,141.55,9h29h29
					c18.74,0,36.12,6.23,48.81,16.31c12.69,10.08,20.69,24,20.69,39.37c0,0,0,1.56,0,4.28c0,0.68-0.06,1.91-0.22,4.06
					c-1.11,6.85-2.11,13.71-2.97,20.56c-0.43,3.43-0.87,7.96-1.27,12.41c-7.55,34.01-5.55,68.01,2.28,100.58
					c0.22,1.99,0.38,3.29,0.56,4.96c0.31,1.7,0.62,3.4,0.96,5.1c0.36,1.96,0.63,3.56,0.65,3.92c0,14.45,0,25.56,0,25.56
					c-14.5,0-27.62,4.58-37,11.97C222.68,265.49,217.05,275.71,217.55,287z"/>
			</defs>
			<use xlink:href="#SVGID_00000127018700303898796540000010861579226986748586_"  style="overflow:visible;fill:#E9008A;"/>
			<clipPath id="SVGID_00000009552737066692405210000008706438295835057847_">
				<use xlink:href="#SVGID_00000127018700303898796540000010861579226986748586_"  style="overflow:visible;"/>
			</clipPath>
			
				<path style="clip-path:url(#SVGID_00000009552737066692405210000008706438295835057847_);fill:#FFFFFF;stroke:#000000;stroke-width:4;stroke-miterlimit:10;" d="
				M1319.95,122c0,6.33-23.01,11.46-51.39,11.46c-28.38,0-51.39-5.13-51.39-11.46s23.01-11.46,51.39-11.46
				C1296.94,110.54,1319.95,115.67,1319.95,122z"/>
		</g>
		<g>
			<path class="st15" d="M121.44,288.61v-16.74c0-4.13,3.36-7.49,7.49-7.49h0.83c3.99,0,7.24,3.25,7.24,7.24v16.99H121.44z"/>
			<path d="M129.76,264.77c3.78,0,6.85,3.07,6.85,6.85v16.6h-14.79v-16.35c0-3.92,3.19-7.1,7.1-7.1H129.76 M129.76,264h-0.83
				c-4.35,0-7.87,3.53-7.87,7.87V289h16.33v-17.37C137.39,267.41,133.97,264,129.76,264L129.76,264z"/>
		</g>
		<g>
			<path class="st15" d="M137.77,288.61v-16.74c0-4.13,3.36-7.49,7.49-7.49h0.83c3.99,0,7.24,3.25,7.24,7.24v16.99H137.77z"/>
			<path d="M146.09,264.77c3.78,0,6.85,3.07,6.85,6.85v16.6h-14.79v-16.35c0-3.92,3.19-7.1,7.1-7.1H146.09 M146.09,264h-0.83
				c-4.35,0-7.87,3.53-7.87,7.87V289h16.33v-17.37C153.72,267.41,150.31,264,146.09,264L146.09,264z"/>
		</g>
		<g>
			<path class="st15" d="M154.11,288.61v-16.74c0-4.13,3.36-7.49,7.49-7.49h0.83c3.99,0,7.24,3.25,7.24,7.24v16.99H154.11z"/>
			<path d="M162.43,264.77c3.78,0,6.85,3.07,6.85,6.85v16.6h-14.79v-16.35c0-3.92,3.19-7.1,7.1-7.1H162.43 M162.43,264h-0.83
				c-4.35,0-7.87,3.53-7.87,7.87V289h16.33v-17.37C170.05,267.41,166.64,264,162.43,264L162.43,264z"/>
		</g>
		<g>
			<path class="st15" d="M170.44,288.61v-16.74c0-4.13,3.36-7.49,7.49-7.49h0.83c3.99,0,7.24,3.25,7.24,7.24v16.99H170.44z"/>
			<path d="M178.76,264.77c3.78,0,6.85,3.07,6.85,6.85v16.6h-14.79v-16.35c0-3.92,3.19-7.1,7.1-7.1H178.76 M178.76,264h-0.83
				c-4.35,0-7.87,3.53-7.87,7.87V289h16.33v-17.37C186.39,267.41,182.97,264,178.76,264L178.76,264z"/>
		</g>
		<g>
			<path class="st15" d="M186.77,288.61v-16.74c0-4.13,3.36-7.49,7.49-7.49h0.83c3.99,0,7.24,3.25,7.24,7.24v16.99H186.77z"/>
			<path d="M195.09,264.77c3.78,0,6.85,3.07,6.85,6.85v16.6h-14.79v-16.35c0-3.92,3.19-7.1,7.1-7.1H195.09 M195.09,264h-0.83
				c-4.35,0-7.87,3.53-7.87,7.87V289h16.33v-17.37C202.72,267.41,199.31,264,195.09,264L195.09,264z"/>
		</g>
		<g>
			<path class="st15" d="M203.11,288.61v-16.74c0-4.13,3.36-7.49,7.49-7.49h0.83c3.99,0,7.24,3.25,7.24,7.24v16.99H203.11z"/>
			<path d="M211.43,264.77c3.78,0,6.85,3.07,6.85,6.85v16.6h-14.79v-16.35c0-3.92,3.19-7.1,7.1-7.1H211.43 M211.43,264h-0.83
				c-4.35,0-7.87,3.53-7.87,7.87V289h16.33v-17.37C219.05,267.41,215.64,264,211.43,264L211.43,264z"/>
		</g>
		<path d="M78.58,216.35c2.42,6.85,10.17,8.9,16.13,8.03c0.23-0.03,0.46-0.09,0.68-0.15c15.14-4.41,29.5-5.65,44.48-5.5
			c2.85,0.03,5.18-2.26,5.18-5.11v-0.28c0-2.8-2.25-5.08-5.06-5.12c-1.36-0.02-2.72-0.03-4.08-0.03
			c-16.75-0.86-30.67,10.97-47.51,13.09c-0.24,0.03-0.48,0.04-0.71,0.04C83.82,221.33,80.01,221.18,78.58,216.35L78.58,216.35z"/>
		<path d="M258.52,216.39c-2.42,6.85-10.17,8.9-16.13,8.03c-0.23-0.03-0.46-0.09-0.68-0.15c-15.14-4.41-29.5-5.65-44.48-5.5
			c-2.85,0.03-5.18-2.26-5.18-5.11v-0.28c0-2.8,2.25-5.08,5.06-5.12c1.36-0.02,2.72-0.03,4.08-0.03
			c16.75-0.86,30.67,10.97,47.51,13.09c0.24,0.03,0.48,0.04,0.71,0.04C253.29,221.36,257.1,221.22,258.52,216.39L258.52,216.39z"/>
		<path d="M173.17,158.03c12.26,7.54,4.65,20.98,12.22,32.76c2.85,4.43-11.1,6.15-11.71,1.42c-0.01-0.06-0.05-0.14-0.02-0.19
			c3.49-6.88,0.99-27.93-2.65-34.81L173.17,158.03z"/>
		<path d="M165.61,158.02c-11.78,8.63-3.39,21.35-10.24,33.79c-2.57,4.68,11.43,5.12,11.75,0.36c0-0.06,0.04-0.14,0.01-0.19
			c-3.89-6.55-2.64-27.77,0.58-34.97L165.61,158.02z"/>
		<circle class="st15" cx="130.05" cy="182" r="7"/>
		<circle class="st16" cx="117.05" cy="198" r="5"/>
		<circle class="st16" cx="101.05" cy="203" r="3"/>
		<circle class="st16" cx="91.55" cy="200.5" r="2.5"/>
		<circle class="st16" cx="206.05" cy="183" r="7"/>
		<circle class="st16" cx="224.05" cy="199" r="5"/>
		<circle class="st16" cx="242.05" cy="202" r="3"/>
		<circle class="st16" cx="253.55" cy="202.5" r="2.5"/>
		<polygon class="st17" points="151.35,86.66 161.02,85.38 151.91,81.88 161.6,83.04 153.65,77.39 162.74,80.92 156.44,73.47 
			164.37,79.15 160.13,70.37 166.39,77.85 164.47,68.29 168.68,77.08 169.19,67.34 171.08,76.91 173.99,67.61 173.44,77.34 
			178.58,69.06 175.63,78.35 182.67,71.6 177.5,79.87 185.99,75.08 178.93,81.8 188.35,79.28 179.83,84.03 189.58,83.93 
			180.15,86.42 189.62,88.75 179.87,88.81 188.47,93.42 179.01,91.06 186.18,97.66 177.61,93.01 182.92,101.19 175.77,94.56 
			178.87,103.81 173.6,95.61 174.31,105.33 171.24,96.08 169.51,105.68 168.83,95.95 164.77,104.81 166.54,95.22 160.4,102.8 
			164.49,93.95 156.66,99.76 162.83,92.21 153.8,95.89 161.66,90.11 151.99,91.43 161.04,87.78 		"/>
		<polygon class="st16" points="172.55,13.48 156.08,42.01 189.03,42.01 		"/>
		<polygon class="st18" points="172.47,21 153.89,56 191.05,56 		"/>
		<circle class="st19" cx="136.05" cy="81" r="9"/>
		<circle class="st19" cx="97.55" cy="70.5" r="5.5"/>
		<circle class="st19" cx="80.55" cy="76.5" r="3.5"/>
		<circle class="st19" cx="118.05" cy="68" r="7"/>
		<path class="st19" d="M195.05,83c0,4.97,4.03,9,9,9s9-4.03,9-9s-4.03-9-9-9S195.05,78.03,195.05,83z"/>
		<circle class="st19" cx="242.55" cy="72.5" r="5.5"/>
		<path class="st19" d="M256.05,78.5c0,1.93,1.57,3.5,3.5,3.5s3.5-1.57,3.5-3.5s-1.57-3.5-3.5-3.5S256.05,76.57,256.05,78.5z"/>
		<circle class="st19" cx="222.05" cy="70" r="7"/>
		<path class="st20" d="M94.31,136.95c-7.97,3.07-13.27,6.45-12.57,8.27c0.66,1.7,6.38,1.56,13.97-0.1
			c-5.19,4.16-8.11,7.79-7.03,9.16c1,1.27,5.21,0.29,10.7-2.24c0.02-0.01,0.05-0.02,0.07-0.03c-3.36,5.23-4.8,9.33-3.33,10.32
			c0.28,0.19,0.64,0.25,1.09,0.21c2.35-0.24,6.86-3.55,11.7-8.55c-2.25,7.62-2.56,13.56-0.5,14.19c0.32,0.1,0.69,0.06,1.08-0.1
			c0.03-0.01,0.06-0.02,0.09-0.04c2.53-1.05,6.41-6.96,9.62-14.76c0,10.69,2.17,19.35,4.85,19.35c2.22,0,4.08-5.92,4.67-14.01
			c2.48,6.26,5.31,10.35,7.21,9.94c1.96-0.42,2.36-5.55,1.24-12.47c-0.02-0.1-0.03-0.21-0.05-0.31c0-0.02-0.01-0.05-0.01-0.07
			c5.45,5.97,10.53,9.64,12.39,8.71c1.73-1.33-0.86-7.54-5.96-14.76c0.12,0.07,0.24,0.13,0.36,0.2c0.02,0.01,0.04,0.03,0.07,0.04
			c6.68,3.67,12.11,5.38,13.32,3.94c1.27-1.52-2.48-6.06-8.83-11.07c8.2,1.87,14.51,2.09,15.19,0.29c0.55-1.44-2.67-3.84-7.98-6.28
			c6.92-0.72,11.65-2.18,11.65-3.86c0-1.96-6.48-3.62-15.37-4.16c7.47-3.04,12.35-6.28,11.65-8.03c-0.68-1.7-6.45-1.51-14.07,0.23
			c6.9-5.02,11.1-9.71,9.84-11.31c-1.43-1.82-9.4,0.97-18.32,6.29c6.66-8.18,10.35-15.72,8.29-17.11
			c-1.74-1.17-7.07,2.43-12.86,8.42c0,0.01,0,0.02-0.01,0.03c-0.01,0.01-0.01,0.02-0.02,0.02c0-0.01,0.01-0.02,0.01-0.03
			c2.22-7.58,2.52-13.46,0.47-14.09c-1.92-0.58-5.37,3.63-8.59,10.12c0-0.01,0-0.02,0-0.03c-0.83-5.99-2.43-10.05-4.26-10.05
			c-2.12,0-3.93,5.45-4.59,13.04c-2.07-6.72-4.7-11.25-6.68-10.94c-2,0.31-2.76,5.5-2.11,12.59c0,0.01,0,0.02,0,0.02
			c-5.41-5.84-10.37-9.34-12.11-8.24c-1.68,1.06,0.16,6.12,4.2,12.35c-0.01-0.01-0.02-0.01-0.04-0.02
			c-7.28-4.18-13.35-6.22-14.64-4.68c-1.27,1.52,2.48,6.06,8.83,11.07c-8.2-1.87-14.51-2.09-15.19-0.29
			c-0.86,2.27,7.6,6.91,18.91,10.35c0.14,0.04,0.27,0.08,0.41,0.12c-11.31,0.14-20.26,2.03-20.26,4.34
			C80.8,134.75,86.39,136.31,94.31,136.95z"/>
		<ellipse class="st21" cx="122.84" cy="131.05" rx="21.62" ry="19.96"/>
		<ellipse class="st6" cx="120.03" cy="129.79" rx="16.08" ry="14.93"/>
		<path class="st20" d="M244.69,137.41c7.97,3.07,13.27,6.45,12.57,8.27c-0.66,1.7-6.38,1.56-13.97-0.1
			c5.19,4.16,8.11,7.79,7.03,9.16c-1,1.27-5.21,0.29-10.7-2.24c-0.02-0.01-0.05-0.02-0.07-0.03c3.36,5.23,4.8,9.33,3.33,10.32
			c-0.28,0.19-0.64,0.25-1.09,0.21c-2.35-0.24-6.86-3.55-11.7-8.55c2.25,7.62,2.56,13.56,0.5,14.19c-0.32,0.1-0.69,0.06-1.08-0.1
			c-0.03-0.01-0.06-0.02-0.09-0.04c-2.53-1.05-6.41-6.96-9.62-14.76c0,10.69-2.17,19.35-4.85,19.35c-2.22,0-4.08-5.92-4.67-14.01
			c-2.48,6.26-5.31,10.35-7.21,9.94c-1.96-0.42-2.36-5.55-1.24-12.47c0.02-0.1,0.03-0.21,0.05-0.31c0-0.02,0.01-0.05,0.01-0.07
			c-5.45,5.97-10.53,9.64-12.39,8.71c-1.73-1.33,0.86-7.54,5.96-14.76c-0.12,0.07-0.24,0.13-0.36,0.2
			c-0.02,0.01-0.04,0.03-0.07,0.04c-6.68,3.67-12.11,5.38-13.32,3.94c-1.27-1.52,2.48-6.06,8.83-11.07
			c-8.2,1.87-14.51,2.09-15.19,0.29c-0.55-1.44,2.67-3.84,7.98-6.28c-6.92-0.72-11.65-2.18-11.65-3.86c0-1.96,6.48-3.62,15.37-4.16
			c-7.47-3.04-12.35-6.28-11.65-8.03c0.68-1.7,6.45-1.51,14.07,0.23c-6.9-5.02-11.1-9.71-9.84-11.31c1.43-1.82,9.4,0.97,18.32,6.29
			c-6.66-8.18-10.35-15.72-8.29-17.11c1.74-1.17,7.07,2.43,12.86,8.42c0,0.01,0,0.02,0.01,0.03c0.01,0.01,0.01,0.02,0.02,0.02
			c0-0.01-0.01-0.02-0.01-0.03c-2.22-7.58-2.52-13.46-0.47-14.09c1.92-0.58,5.37,3.63,8.59,10.12c0-0.01,0-0.02,0-0.03
			c0.83-5.99,2.43-10.05,4.26-10.05c2.12,0,3.93,5.45,4.59,13.04c2.07-6.72,4.7-11.25,6.68-10.94c2,0.31,2.76,5.5,2.11,12.59
			c0,0.01,0,0.02,0,0.02c5.41-5.84,10.37-9.34,12.11-8.24c1.68,1.06-0.16,6.12-4.2,12.35c0.01-0.01,0.02-0.01,0.04-0.02
			c7.28-4.18,13.35-6.22,14.64-4.68c1.27,1.52-2.48,6.06-8.83,11.07c8.2-1.87,14.51-2.09,15.19-0.29c0.86,2.27-7.6,6.91-18.91,10.35
			c-0.14,0.04-0.27,0.08-0.41,0.12c11.31,0.14,20.26,2.03,20.26,4.34C258.19,135.2,252.61,136.76,244.69,137.41z"/>
		<ellipse class="st21" cx="216.16" cy="132.5" rx="21.62" ry="19.96"/>
		<ellipse class="st6" cx="218.96" cy="131.24" rx="16.08" ry="14.93"/>
		<path class="st22" d="M203.04,35.55c0,0.82-2.62,1.48-5.85,1.48c-3.23,0-5.85-0.66-5.85-1.48s2.62-1.48,5.85-1.48
			C200.42,34.07,203.04,34.73,203.04,35.55z"/>
		
			<ellipse transform="matrix(0.9993 -0.0376 0.0376 0.9993 -0.932 7.6529)" class="st22" cx="203.05" cy="28.61" rx="1.31" ry="6.62"/>
		<ellipse class="st22" cx="209.2" cy="35.56" rx="5.85" ry="1.48"/>
		
			<ellipse transform="matrix(0.9993 -0.0376 0.0376 0.9993 -1.4497 7.6755)" class="st22" cx="203.39" cy="42.39" rx="1.31" ry="6.62"/>
		
			<ellipse transform="matrix(0.7073 -0.7069 0.7069 0.7073 29.8609 152.2475)" class="st23" cx="198.78" cy="40.06" rx="6.2" ry="1.39"/>
		
			<ellipse transform="matrix(0.7689 -0.6393 0.6393 0.7689 26.5282 134.368)" class="st23" cx="199.16" cy="30.48" rx="1.38" ry="6.27"/>
		
			<ellipse transform="matrix(0.7073 -0.7069 0.7069 0.7073 38.8151 156.041)" class="st23" cx="207.84" cy="31.15" rx="6.2" ry="1.39"/>
		
			<ellipse transform="matrix(0.7689 -0.6393 0.6393 0.7689 21.967 141.9971)" class="st23" cx="207.43" cy="40.61" rx="1.38" ry="6.27"/>
		<ellipse class="st24" cx="203.26" cy="35.16" rx="2.73" ry="2.9"/>
		<path class="st22" d="M168.93,86.1c0,0.82-2.62,1.48-5.85,1.48c-3.23,0-5.85-0.66-5.85-1.48s2.62-1.48,5.85-1.48
			C166.31,84.63,168.93,85.29,168.93,86.1z"/>
		
			<ellipse transform="matrix(0.9993 -0.0376 0.0376 0.9993 -2.8566 6.4064)" class="st22" cx="168.94" cy="79.17" rx="1.31" ry="6.62"/>
		<ellipse class="st22" cx="175.09" cy="86.12" rx="5.85" ry="1.48"/>
		
			<ellipse transform="matrix(0.9993 -0.0376 0.0376 0.9993 -3.3742 6.429)" class="st22" cx="169.28" cy="92.94" rx="1.31" ry="6.62"/>
		
			<ellipse transform="matrix(0.7073 -0.7069 0.7069 0.7073 -15.8628 142.9318)" class="st23" cx="164.67" cy="90.62" rx="6.2" ry="1.39"/>
		
			<ellipse transform="matrix(0.7689 -0.6393 0.6393 0.7689 -13.6751 124.2417)" class="st23" cx="165.04" cy="81.04" rx="1.38" ry="6.27"/>
		
			<ellipse transform="matrix(0.7073 -0.7069 0.7069 0.7073 -6.9086 146.7253)" class="st23" cx="173.72" cy="81.71" rx="6.2" ry="1.39"/>
		
			<ellipse transform="matrix(0.7689 -0.6393 0.6393 0.7689 -18.2364 131.8707)" class="st23" cx="173.32" cy="91.16" rx="1.38" ry="6.27"/>
		<ellipse class="st24" cx="169.15" cy="85.72" rx="2.73" ry="2.9"/>
		<path class="st22" d="M141.93,37.1c0,0.82-2.62,1.48-5.85,1.48c-3.23,0-5.85-0.66-5.85-1.48s2.62-1.48,5.85-1.48
			C139.31,35.63,141.93,36.29,141.93,37.1z"/>
		
			<ellipse transform="matrix(0.9993 -0.0376 0.0376 0.9993 -1.0337 5.3568)" class="st22" cx="141.94" cy="30.17" rx="1.31" ry="6.62"/>
		<ellipse class="st22" cx="148.09" cy="37.12" rx="5.85" ry="1.48"/>
		
			<ellipse transform="matrix(0.9993 -0.0376 0.0376 0.9993 -1.5514 5.3794)" class="st22" cx="142.28" cy="43.94" rx="1.31" ry="6.62"/>
		
			<ellipse transform="matrix(0.7073 -0.7069 0.7069 0.7073 10.8732 109.5023)" class="st23" cx="137.67" cy="41.62" rx="6.2" ry="1.39"/>
		
			<ellipse transform="matrix(0.7689 -0.6393 0.6393 0.7689 11.413 95.6581)" class="st23" cx="138.04" cy="32.04" rx="1.38" ry="6.27"/>
		
			<ellipse transform="matrix(0.7073 -0.7069 0.7069 0.7073 19.8274 113.2958)" class="st23" cx="146.72" cy="32.71" rx="6.2" ry="1.39"/>
		
			<ellipse transform="matrix(0.7689 -0.6393 0.6393 0.7689 6.8518 103.2871)" class="st23" cx="146.32" cy="42.16" rx="1.38" ry="6.27"/>
		<ellipse class="st24" cx="142.15" cy="36.72" rx="2.73" ry="2.9"/>
		<ellipse class="st22" cx="247.08" cy="203.1" rx="5.85" ry="1.48"/>
		
			<ellipse transform="matrix(0.9993 -0.0376 0.0376 0.9993 -7.1953 9.6467)" class="st22" cx="252.94" cy="196.17" rx="1.31" ry="6.62"/>
		<ellipse class="st22" cx="259.09" cy="203.12" rx="5.85" ry="1.48"/>
		
			<ellipse transform="matrix(0.9993 -0.0376 0.0376 0.9993 -7.713 9.6693)" class="st22" cx="253.28" cy="209.94" rx="1.31" ry="6.62"/>
		
			<ellipse transform="matrix(0.7073 -0.7069 0.7069 0.7073 -73.9851 236.5598)" class="st23" cx="248.67" cy="207.62" rx="6.2" ry="1.39"/>
		
			<ellipse transform="matrix(0.7689 -0.6393 0.6393 0.7689 -69.0666 204.9787)" class="st23" cx="249.04" cy="198.04" rx="1.38" ry="6.27"/>
		
			<ellipse transform="matrix(0.7073 -0.7069 0.7069 0.7073 -65.0309 240.3533)" class="st23" cx="257.72" cy="198.71" rx="6.2" ry="1.39"/>
		
			<ellipse transform="matrix(0.7689 -0.6393 0.6393 0.7689 -73.6279 212.6078)" class="st23" cx="257.32" cy="208.16" rx="1.38" ry="6.27"/>
		<ellipse class="st24" cx="253.15" cy="202.72" rx="2.73" ry="2.9"/>
		<ellipse class="st22" cx="83.08" cy="203.1" rx="5.85" ry="1.48"/>
		
			<ellipse transform="matrix(0.9993 -0.0376 0.0376 0.9993 -7.3112 3.4818)" class="st22" cx="88.94" cy="196.17" rx="1.31" ry="6.62"/>
		<ellipse class="st22" cx="95.09" cy="203.12" rx="5.85" ry="1.48"/>
		
			<ellipse transform="matrix(0.9993 -0.0376 0.0376 0.9993 -7.8289 3.5044)" class="st22" cx="89.28" cy="209.94" rx="1.31" ry="6.62"/>
		
			<ellipse transform="matrix(0.7073 -0.7069 0.7069 0.7073 -121.989 120.6249)" class="st23" cx="84.67" cy="207.62" rx="6.2" ry="1.39"/>
		
			<ellipse transform="matrix(0.7689 -0.6393 0.6393 0.7689 -106.9605 100.13)" class="st23" cx="85.04" cy="198.04" rx="1.38" ry="6.27"/>
		
			<ellipse transform="matrix(0.7073 -0.7069 0.7069 0.7073 -113.0349 124.4184)" class="st23" cx="93.72" cy="198.71" rx="6.2" ry="1.39"/>
		
			<ellipse transform="matrix(0.7689 -0.6393 0.6393 0.7689 -111.5218 107.7591)" class="st23" cx="93.32" cy="208.16" rx="1.38" ry="6.27"/>
		<ellipse class="st24" cx="89.15" cy="202.72" rx="2.73" ry="2.9"/>
		<path class="st25" d="M259.86,52.91c4.32-5.7-3.5-11.76-17.46-13.52c-11.17-1.41-23.03,1.14-26.48,5.71
			c-2.76,3.65,2.24,7.53,11.18,8.66c7.15,0.9,14.74-0.73,16.95-3.65c1.77-2.34-1.43-4.82-7.15-5.54c-4.58-0.58-9.43,0.47-10.85,2.34
			c-1.13,1.5,0.92,3.08,4.58,3.55c2.93,0.37,6.04-0.3,6.94-1.5c0.72-0.96-0.59-1.97-2.93-2.27c-1.87-0.24-3.86,0.19-4.44,0.96"/>
		<path class="st26" d="M76.73,52.18c-5.15-5.82,4.18-11.99,20.83-13.79c13.32-1.44,27.47,1.17,31.59,5.82
			c3.3,3.72-2.67,7.67-13.33,8.82c-8.53,0.92-17.58-0.75-20.22-3.72c-2.11-2.38,1.71-4.91,8.53-5.65
			c5.46-0.59,11.25,0.48,12.94,2.38c1.35,1.52-1.09,3.14-5.46,3.61c-3.49,0.38-7.2-0.31-8.28-1.53c-0.86-0.98,0.7-2.01,3.49-2.31
			c2.24-0.24,4.61,0.2,5.3,0.98"/>
	</g>
	<path class="st13" d="M250.05,28.09v-0.04c-5.56-0.17-11.22-0.18-16.79,0.04c0.76-0.16,1.76-0.42,2.77-0.75
		c1.88-0.61,3.1-1.2,2.73-1.32c-0.37-0.12-2.19,0.28-4.07,0.88c-1.62,0.53-2.76,1.04-2.79,1.25c-8.06,0.38-16.26,1.21-20.85,2.99
		c-1.35,0.53-2.27,1.18-2.53,1.86l11.83,0c-0.03-0.04-0.07-0.09-0.11-0.13l-0.02-0.04l-0.05-0.09c0-0.05,0-0.09-0.01-0.14
		c0.02-0.03,0.04-0.12,0.05-0.15c0.03-0.04,0.09-0.12,0.11-0.15c0.03-0.03,0.14-0.13,0.18-0.16l0.16-0.11
		c0.31-0.21,0.81-0.42,1.32-0.61c1.48-0.51,3.39-0.95,5.53-1.32c0.05,0.17,1.89,0.5,4.27,0.76c2.52,0.27,4.7,0.36,4.86,0.2
		c0.17-0.16-1.74-0.51-4.26-0.78c-1.79-0.19-3.4-0.29-4.25-0.28c1.9-0.32,3.95-0.58,6.01-0.81c3.31-0.37,6.82-0.64,10.39-0.84
		C246.35,28.23,248.19,28.15,250.05,28.09z"/>
	<path class="st13" d="M87.02,28.99l0-0.04c6.89-0.18,13.88-0.16,20.74,0.12c-0.93-0.19-2.13-0.51-3.35-0.9
		c-2.26-0.73-3.71-1.44-3.23-1.58c0.47-0.14,2.68,0.34,4.94,1.07c1.95,0.63,3.3,1.25,3.32,1.49c9.93,0.49,19.96,1.5,25.45,3.64
		c1.62,0.63,2.68,1.41,2.93,2.22l-14.62-0.05c0.04-0.05,0.1-0.11,0.15-0.15l0.03-0.05l0.07-0.11c0-0.05,0.01-0.11,0.03-0.17
		c-0.02-0.03-0.03-0.14-0.05-0.18c-0.03-0.05-0.09-0.14-0.12-0.18c-0.04-0.04-0.16-0.15-0.2-0.19l-0.19-0.13
		c-0.36-0.25-0.96-0.5-1.57-0.73c-1.78-0.61-4.1-1.14-6.69-1.59c-0.08,0.2-2.38,0.58-5.36,0.88c-3.14,0.31-5.84,0.41-6.03,0.21
		c-0.19-0.19,2.21-0.6,5.35-0.91c2.23-0.22,4.23-0.33,5.28-0.31c-2.32-0.38-4.83-0.71-7.34-0.99c-4.05-0.45-8.36-0.79-12.75-1.04
		C91.58,29.17,89.31,29.07,87.02,28.99z"/>
</g>
</svg>
